<svg width="158" height="32" viewBox="0 0 158 32" fill="none" xmlns="http://www.w3.org/2000/svg">
<path d="M30.7244 10.3525C30.8285 10.3584 30.9323 10.3362 31.0246 10.2885C31.117 10.2407 31.1944 10.1692 31.2487 10.0815C31.3716 9.8801 31.3574 9.6178 31.2131 9.39716L30.7511 8.69674C30.6504 8.54371 30.4989 8.42993 30.3224 8.3749C30.3525 8.20481 30.3142 8.02988 30.2158 7.88706L29.8327 7.30641C29.7316 7.15395 29.5792 7.04148 29.4023 6.98877C29.4188 6.90494 29.4183 6.81873 29.4009 6.73508C29.3835 6.65142 29.3496 6.57197 29.301 6.50128L29.038 6.10344C28.9794 6.01498 28.9028 5.93956 28.8129 5.88202C28.7231 5.82448 28.622 5.7861 28.5162 5.76934C28.1899 5.72264 27.8639 5.67933 27.5381 5.63941C22.7147 0.745218 14.9945 -0.585581 8.63677 2.86399C4.54551 5.08327 1.84822 8.83017 0.877561 12.9875C0.621303 13.2057 0.427239 13.3822 0.296088 13.5048C0.175591 13.6195 0.10597 13.7764 0.102385 13.9415L0.0881718 14.5754C0.0834486 14.728 0.136818 14.8769 0.237803 14.9928C0.132726 15.1067 0.073015 15.2543 0.0696892 15.4082L0.0515624 16.22C0.0463484 16.375 0.100093 16.5264 0.202261 16.6444C0.0962528 16.7599 0.0359468 16.909 0.0323682 17.0647L0.000730859 18.4753C-0.00509942 18.594 0.0240509 18.7118 0.0846575 18.8145C0.145264 18.9172 0.234742 19.0005 0.342295 19.0542C0.418088 19.0912 0.501526 19.1105 0.586118 19.1106C0.624356 19.1104 0.662466 19.1063 0.699851 19.0983C0.997957 20.8011 1.58261 22.4428 2.42968 23.9558C6.62686 31.4695 16.2111 34.2078 23.8367 30.0722C31.0045 26.1859 33.8898 17.6085 30.7244 10.3525Z" fill="#0A0A3C"/>
<path d="M22.4229 0.872907C22.6543 0.948553 22.8825 0.995831 23.1153 1.05362C23.7195 1.20666 24.3123 1.33624 24.8874 1.56212C26.1932 2.08534 27.1859 3.18885 27.7144 4.47517C27.7357 4.52602 27.774 4.56814 27.823 4.59451C27.8719 4.62088 27.9286 4.6299 27.9835 4.62006C28.0384 4.61023 28.0882 4.58213 28.1247 4.54046C28.1611 4.4988 28.1819 4.44608 28.1836 4.39112C28.211 2.65828 27.0047 1.04556 25.4177 0.359499C25.0935 0.21343 24.7522 0.107558 24.4016 0.0443099C23.7056 -0.0674072 22.9497 0.0232971 22.3579 0.417634C22.3188 0.445244 22.2882 0.482858 22.2693 0.526403C22.2504 0.569947 22.2439 0.61776 22.2506 0.66466C22.2573 0.711561 22.2769 0.75576 22.3073 0.792468C22.3377 0.829177 22.3777 0.856995 22.4229 0.872907V0.872907Z" fill="#0A0A3C"/>
<path d="M10.0534 7.68149C10.32 6.6102 10.9363 5.6177 11.811 4.92919C12.4198 4.47041 13.1918 4.17518 13.9645 4.25468C14.0184 4.26164 14.0691 4.28353 14.1109 4.31781C14.1526 4.3521 14.1836 4.39736 14.2003 4.44833C14.2169 4.4993 14.2185 4.55388 14.2049 4.60572C14.1913 4.65755 14.163 4.70451 14.1233 4.74112C13.6489 5.20095 13.1239 5.6219 12.6601 6.08033C12.3402 6.37377 12.0559 6.70284 11.8131 7.06092C13.5649 6.49767 15.3592 6.07223 17.1793 5.7886C18.2477 5.6212 19.3281 5.50225 20.4207 5.43174C19.7237 4.9502 19.5048 4.33873 19.8726 4.00463C20.2249 3.68489 21.0313 3.72657 21.7379 4.03965C22.4267 4.34469 22.9819 4.89031 23.0025 5.35469C23.9372 5.3589 24.8772 5.39754 25.8224 5.47061C22.6901 2.82582 18.4737 1.51043 14.1692 2.1198C14.161 2.24342 13.6361 2.47877 12.8104 2.68014C11.9848 2.88151 11.4086 2.91058 11.3432 2.80481C6.9609 4.32507 3.69919 7.74698 2.29492 11.8728C3.71661 10.8299 5.81359 9.49698 8.54607 8.30066C9.04366 8.0819 9.54611 7.87551 10.0534 7.68149ZM7.29819 8.54861C6.47894 9.4392 5.54774 9.58769 5.29148 9.03891C5.09174 8.6099 5.38141 7.86745 5.90139 7.30186C6.42137 6.73627 7.14359 6.37976 7.59639 6.5335C8.17786 6.72997 8.11921 7.65803 7.29961 8.54861H7.29819Z" fill="#FFD639"/>
<path d="M30.5275 13.0119C30.2926 12.0665 29.9621 11.1467 29.5408 10.2663C28.2044 10.1853 26.8697 10.1663 25.5366 10.2095C26.5766 11.5572 26.9029 13.5047 26.8688 15.1444C26.8158 16.901 26.3282 18.9659 25.0309 20.2459C24.7396 20.5355 24.3879 20.7593 24.0002 20.9018C23.912 21.1682 23.7883 21.4219 23.6323 21.6562C23.6032 21.6999 23.5612 21.7672 23.5278 21.8078C23.3264 22.0758 23.0917 22.3179 22.8294 22.5285C22.7814 22.5678 22.6602 22.6522 22.609 22.6907L22.4551 22.7884L22.378 22.8371L22.2977 22.8805C22.1386 22.9703 21.9722 23.0468 21.8001 23.1092C21.6854 23.152 21.5684 23.1884 21.4496 23.2185C21.3981 23.2353 21.322 23.2444 21.2691 23.2556C21.1482 23.2777 21.0261 23.2928 20.9034 23.3008C20.8672 23.3042 20.8309 23.2962 20.7998 23.2778C20.7687 23.2594 20.7444 23.2316 20.7305 23.1985C20.7167 23.1655 20.714 23.1289 20.7228 23.0942C20.7317 23.0595 20.7516 23.0285 20.7797 23.0059C20.8071 22.9851 20.8398 22.9724 20.8742 22.9691C21.196 22.9229 21.5077 22.8242 21.7965 22.677C21.8941 22.6291 21.989 22.5761 22.0809 22.5184L22.1502 22.4764L22.2167 22.4294C22.528 22.2155 22.8032 21.9547 23.0324 21.6565C23.1795 21.4631 23.303 21.2533 23.4002 21.0314C23.4504 20.916 23.4908 20.7968 23.5211 20.6749C23.5508 20.5567 23.5692 20.4361 23.5758 20.3145C23.5758 20.2903 23.5786 20.2662 23.5786 20.2417C23.5829 19.8239 23.4091 19.5017 23.1272 19.301C22.9051 19.1431 22.6162 19.0604 22.2941 19.0664C22.226 19.066 22.158 19.0702 22.0905 19.079C22.0308 19.086 21.9714 19.0944 21.9128 19.1021C21.7936 19.1255 21.6759 19.1554 21.5602 19.1917C21.477 19.2177 21.3946 19.2471 21.3135 19.2807C21.2901 19.2891 21.2503 19.307 21.2097 19.3262L21.0971 19.3791C21.0278 19.4141 20.9549 19.4526 20.8874 19.4929C20.8643 19.5062 20.8412 19.5202 20.8191 19.5342C20.6371 19.6468 20.4644 19.7734 20.3027 19.9128C20.2654 19.9478 20.1641 20.0427 20.1275 20.0774C19.9953 20.2099 19.8738 20.3524 19.7642 20.5036C19.6064 20.719 19.4777 20.9538 19.3815 21.2019C19.371 21.234 19.3513 21.2622 19.3246 21.2832C19.2971 21.3048 19.2635 21.3174 19.2284 21.3192C19.1933 21.321 19.1585 21.3119 19.1289 21.2933C19.0992 21.2746 19.0763 21.2473 19.0632 21.2152C19.0501 21.1831 19.0476 21.1477 19.0559 21.114L19.1 20.9368C19.1242 20.8487 19.1534 20.7619 19.1874 20.677C19.1977 20.6481 19.2096 20.6198 19.2229 20.5922C19.2725 20.4809 19.3283 20.3724 19.39 20.2672C19.419 20.2135 19.4513 20.1616 19.4867 20.1117C19.5542 20.0103 19.6271 19.9123 19.7049 19.8183C19.9652 19.5037 20.2758 19.2329 20.6244 19.0166C20.5437 18.8527 20.4701 18.6857 20.404 18.5179C19.7479 16.7952 19.6999 14.8824 20.0987 13.096C20.3038 12.231 20.6318 11.3299 21.1536 10.5794C20.6276 10.6513 20.1033 10.733 19.5808 10.8245C18.9067 10.9426 18.2345 11.0775 17.5642 11.229C17.5997 11.264 17.6353 11.299 17.6683 11.3341C18.9301 12.6978 19.364 14.8068 19.3722 16.6033C19.369 18.5106 18.8259 20.9992 17.2287 22.2323C16.4802 22.7958 15.5369 22.9327 14.6878 22.4946C13.2469 21.7486 12.5485 19.8834 12.3036 18.3971C12.0018 16.5641 12.1938 14.2195 13.1566 12.4719C12.3318 12.7521 11.5152 13.0569 10.7067 13.3863C9.94502 13.6973 9.22138 14.0167 8.53648 14.341C9.05966 14.6457 9.41722 15.2319 9.36213 15.9688C9.27256 17.1675 8.16151 17.8151 7.16669 17.5044C6.39009 17.2621 5.92271 16.4843 5.97851 15.7229C5.98028 15.6987 5.98278 15.6746 5.98562 15.6504C4.48759 16.4791 3.04773 17.4059 1.67578 18.4248C1.74614 18.9278 1.84282 19.427 1.96545 19.9202C3.00648 24.0999 5.7905 27.4066 9.36853 29.2743C9.45099 29.1804 10.015 29.2939 10.8005 29.6101C11.586 29.9264 12.0754 30.2377 12.0616 30.3603C14.5634 31.0902 17.2171 31.1517 19.751 30.5387C22.2849 29.9256 24.6079 28.6598 26.4821 26.8712C26.411 26.7689 26.6953 26.2733 27.2477 25.6311C27.8 24.9888 28.2428 24.6347 28.3594 24.6806C30.6536 21.3928 31.5681 17.1917 30.5275 13.0119ZM5.64797 24.2565C5.17206 24.3111 4.54617 23.8107 4.15947 23.1484C3.77277 22.4862 3.65335 21.6996 3.94195 21.3228C4.31159 20.8398 5.18876 21.1827 5.79547 22.2249C6.40217 23.2671 6.25823 24.1864 5.64797 24.2565ZM16.3764 24.7177C15.8077 25.1971 14.9415 25.3919 14.9415 25.3919C14.5659 26.2775 14.8843 26.5546 15.1363 27.5737C15.1491 27.6229 15.1572 27.6732 15.1605 27.7239C15.1942 28.3998 14.305 28.5262 13.8127 28.5515C13.2046 28.5823 12.5872 28.555 12.0018 28.3897C10.829 28.0584 9.80854 27.0358 9.77869 25.7858C9.75594 24.8357 10.2134 23.922 10.7426 23.154C10.9389 22.8705 11.1518 22.5985 11.3802 22.3394C11.1062 22.3955 10.8455 22.5025 10.6121 22.6546C10.6042 22.6598 10.5959 22.6644 10.5873 22.6683L10.503 22.69C10.4721 22.6978 10.4395 22.6963 10.4093 22.6858C10.3792 22.6753 10.353 22.6562 10.3339 22.6309C10.3149 22.6056 10.3039 22.5753 10.3023 22.5439C10.3008 22.5124 10.3088 22.4813 10.3253 22.4543C10.6825 21.8565 11.4925 21.5788 12.1547 21.8155C12.3673 21.8882 12.5602 22.008 12.7184 22.1657C12.7439 22.1935 12.7597 22.2287 12.7634 22.2659C12.7672 22.3032 12.7587 22.3407 12.7392 22.3729C12.7197 22.4051 12.6902 22.4303 12.6551 22.4447C12.62 22.4592 12.5811 22.4622 12.5442 22.4532C12.3086 22.3965 12.1117 22.3457 11.8902 22.3223C11.8732 22.3202 11.8547 22.3191 11.8394 22.3174C12.9583 25.4129 15.3183 24.9089 16.2758 24.5514C16.2976 24.5439 16.3213 24.5441 16.3431 24.5518C16.3648 24.5596 16.3831 24.5745 16.395 24.594C16.4069 24.6135 16.4116 24.6365 16.4083 24.659C16.405 24.6815 16.394 24.7022 16.3771 24.7177H16.3764ZM20.4459 28.6278C20.3518 29.0904 19.6747 29.524 18.9176 29.6802C18.1606 29.8364 17.3627 29.7068 17.0883 29.3198C16.7364 28.8243 17.3371 28.1077 18.5317 27.8619C19.7262 27.616 20.5675 28.0349 20.4467 28.6278H20.4459ZM29.7811 17.8707C29.6976 18.6296 29.3261 19.336 28.8684 19.4737C28.2812 19.6488 27.7754 18.8657 27.907 17.6704C28.0385 16.4752 28.7034 15.8143 29.2384 16.112C29.6563 16.3424 29.8653 17.1108 29.7811 17.8707Z" fill="#FFD639"/>
<path d="M8.76375 8.78165C5.66518 10.1363 3.40434 11.6667 2.0317 12.7334C1.39479 13.2283 0.949447 13.6233 0.700652 13.8541L0.66511 13.887C0.647914 13.9046 0.638243 13.9281 0.638098 13.9525L0.630279 14.2943L0.623876 14.5864C0.621823 14.5997 0.623601 14.6133 0.629004 14.6257C0.634406 14.6381 0.64322 14.6487 0.654446 14.6564C0.659066 14.6589 0.664045 14.6606 0.675063 14.654C0.853247 14.5221 1.03759 14.3878 1.22809 14.2512C1.40296 14.1252 1.58494 13.9957 1.77402 13.8629C3.73097 12.4911 6.44675 10.8003 9.93664 9.38646C9.89618 9.02299 9.8982 8.65613 9.94268 8.29311C9.5465 8.4486 9.15353 8.61145 8.76375 8.78165ZM28.8507 6.78895L28.5884 6.39147C28.5715 6.3657 28.5493 6.3436 28.5234 6.3265C28.4975 6.30941 28.4684 6.29767 28.4377 6.29201L28.104 6.24473C27.5607 6.17048 27.0184 6.10756 26.4772 6.05596C25.256 5.93923 24.0422 5.88086 22.8359 5.88086H22.6707C22.2631 5.88296 21.8566 5.89137 21.4512 5.90607C20.0485 5.95782 18.6501 6.0922 17.2636 6.30847C16.504 6.42707 15.75 6.57077 15.0017 6.73958C14.24 6.91071 13.4857 7.10718 12.7391 7.32898C12.2984 7.45996 11.86 7.60004 11.4241 7.74923C11.2434 8.13722 11.1099 8.5449 11.0263 8.96376C11.4986 8.78912 11.9725 8.62406 12.448 8.46856C13.5555 8.10785 14.6742 7.79989 15.8039 7.54471C17.7116 7.1134 19.6511 6.83234 21.6041 6.7042C23.4469 6.57433 25.2972 6.58323 27.1387 6.73082C27.6327 6.77051 28.1312 6.82036 28.6343 6.88036L28.8035 6.90137H28.8052C28.8372 6.90487 28.8632 6.89962 28.8706 6.88736C28.8781 6.87511 28.8806 6.83448 28.8507 6.78895V6.78895Z" fill="white"/>
<path d="M7.78189 14.1118C8.62601 13.6996 9.53163 13.2905 10.4977 12.8959C11.5232 12.4772 12.5622 12.0983 13.6147 11.7591C13.7467 11.5857 13.8904 11.4214 14.0448 11.267C14.8114 10.5123 15.8795 10.2034 16.8736 10.727C16.923 10.7526 16.9717 10.7802 17.0197 10.809C17.8376 10.6161 18.659 10.4472 19.4838 10.3022C20.1998 10.1768 20.9193 10.0698 21.6423 9.98106C21.805 9.81418 21.9825 9.66183 22.1726 9.52579C22.8994 9.02569 23.7986 8.92483 24.582 9.36399C24.7525 9.45795 24.9124 9.5696 25.0589 9.69704C26.3695 9.64101 27.6836 9.64416 29.0013 9.7065C29.4913 9.72984 29.9814 9.76148 30.4716 9.8014C30.5577 9.80841 30.644 9.81506 30.7304 9.82277C30.7446 9.82277 30.7787 9.82487 30.7894 9.80806C30.8 9.79125 30.799 9.73802 30.7624 9.68373L30.3003 8.98331C30.2811 8.95376 30.2559 8.9285 30.2262 8.90914C30.1965 8.88978 30.1631 8.87675 30.128 8.87089L29.9737 8.85514C29.42 8.79817 28.8719 8.75264 28.3295 8.71855C15.8276 7.93373 6.29019 13.0804 1.78842 16.1546C1.62872 16.2634 1.47565 16.3695 1.32922 16.4729L1.31606 16.4824C1.2887 16.5013 1.26205 16.5205 1.23504 16.5394L1.19416 16.5685L1.14049 16.6067L1.08149 16.6487L1.04239 16.6767L0.976289 16.7244C0.846915 16.8178 0.723222 16.9082 0.605222 16.9958C0.593559 17.0064 0.584351 17.0194 0.578218 17.0338C0.572086 17.0483 0.569174 17.0638 0.56968 17.0795V17.0795L0.549427 17.99L0.538051 18.4919C0.535532 18.5096 0.538089 18.5277 0.545436 18.5441C0.552782 18.5605 0.564624 18.5746 0.579633 18.5847C0.58603 18.5878 0.591363 18.5906 0.607713 18.5777L0.618021 18.5693C0.892051 18.3507 1.22224 18.0975 1.60183 17.8181C3.08352 16.7378 4.63991 15.7607 6.25963 14.8938C6.7423 14.6335 7.2497 14.3728 7.78189 14.1118Z" fill="white"/>
<path d="M10.0492 9.99932C10.0471 9.99126 10.0456 9.98286 10.0435 9.9748C7.16411 11.1572 4.42809 12.6535 1.88658 14.4358C1.76692 14.5194 1.64952 14.6025 1.53436 14.6851C1.34883 14.8177 1.16934 14.9486 0.995899 15.0777C0.874345 15.1677 0.755279 15.2567 0.640478 15.3442C0.629703 15.3537 0.621132 15.3654 0.615366 15.3784C0.609599 15.3915 0.606766 15.4056 0.607061 15.4199L0.588579 16.232C0.586609 16.2471 0.588888 16.2624 0.595156 16.2763C0.601424 16.2902 0.611439 16.3021 0.624121 16.3108C0.630163 16.314 0.634783 16.3164 0.64971 16.3056L0.668904 16.2919L0.713688 16.2597L0.778021 16.2134L0.811073 16.1896L0.894245 16.1304L0.907747 16.121C1.20666 15.9109 1.52903 15.6864 1.87486 15.4556C4.56171 13.6703 7.4385 12.1796 10.454 11.01L10.4519 11.0069C10.2725 10.6903 10.1371 10.3514 10.0492 9.99932V9.99932ZM29.7662 8.17472L29.3831 7.59442C29.3653 7.56704 29.342 7.54357 29.3146 7.52549C29.2872 7.50741 29.2563 7.49511 29.2238 7.48936C29.1773 7.48271 29.1307 7.47675 29.0841 7.47045C28.9695 7.45504 28.8548 7.44021 28.7401 7.42597C28.3726 7.37928 28.0072 7.33912 27.644 7.3055C26.4682 7.19413 25.3177 7.1416 24.1964 7.1416C23.3313 7.1416 22.4827 7.1716 21.6505 7.2316C19.7306 7.36775 17.8248 7.6549 15.9513 8.09032C14.7976 8.35753 13.6883 8.67202 12.6267 9.02188C12.0481 9.21239 11.4838 9.41295 10.9338 9.62354C10.899 10.0231 10.9018 10.425 10.942 10.8241C11.0356 10.789 11.1296 10.754 11.2239 10.719C12.0648 10.4106 12.9096 10.1292 13.7584 9.87499C14.3197 9.70736 14.8825 9.55128 15.4466 9.40676C19.5548 8.35138 23.8051 7.93463 28.0438 8.17157C28.5746 8.20145 29.1056 8.24138 29.6368 8.29134L29.7317 8.3001C29.7431 8.3001 29.7808 8.3036 29.7914 8.28609C29.8021 8.26858 29.7996 8.22515 29.7662 8.17472Z" fill="#2D93AD"/>
<path d="M16.6555 11.1676C16.5153 11.0956 16.3662 11.0416 16.212 11.0072C15.7531 10.9074 15.2548 10.9995 14.7462 11.3732C14.7217 11.3924 14.6975 11.4117 14.6734 11.4317C14.5273 11.5528 14.3916 11.6856 14.2678 11.8288C14.1672 11.9451 14.0734 12.0671 13.9871 12.1941C13.6316 12.7145 13.3828 13.3182 13.2051 13.9157C12.6535 15.8244 12.7182 18.1067 13.4802 19.9502C14.1164 21.5104 15.5754 22.9032 17.1332 21.4267C18.3648 20.1813 18.7792 18.293 18.8368 16.5938C18.8592 15.1316 18.6182 13.6089 17.8448 12.3408C17.6042 11.9514 17.3078 11.6085 16.9726 11.363C16.8725 11.2895 16.7664 11.2242 16.6555 11.1676V11.1676ZM17.2566 16.9489L15.8022 17.7761L17.2541 18.6019C17.0287 19.7362 16.3552 20.5595 15.5598 20.5595C14.5795 20.5595 13.7848 19.31 13.7848 17.7687C13.7848 16.2274 14.5795 14.9782 15.5598 14.9782C16.3584 14.9782 17.0337 15.8079 17.2566 16.9489V16.9489Z" fill="white"/>
<path d="M24.0822 19.8534C24.0972 19.936 24.1069 20.0196 24.111 20.1034C24.6989 19.7672 25.2036 19.1228 25.5306 18.4305C26.0317 17.4093 26.267 16.2592 26.3231 15.1255C26.3765 13.7117 26.1728 12.2311 25.4485 10.9931C25.2898 10.7155 25.0929 10.4609 24.8634 10.2366C24.7697 10.1458 24.6692 10.0621 24.5628 9.98621C24.4286 9.89008 24.2831 9.81035 24.1295 9.74876C23.6959 9.57786 23.2125 9.58136 22.7153 9.86328C22.7011 9.87134 22.6868 9.87904 22.673 9.8878C22.5363 9.97125 22.4074 10.0664 22.2877 10.1722C22.1816 10.2653 22.082 10.3653 21.9895 10.4716C21.6941 10.8099 21.4617 11.207 21.2662 11.6217C20.3681 13.5268 20.2355 16.6318 21.273 18.6959C21.3576 18.6648 21.4436 18.6364 21.5306 18.6119C21.5811 18.5975 21.6319 18.5853 21.6831 18.5741C21.4098 18.1002 21.241 17.4516 21.241 16.7358C21.241 15.2849 21.9333 14.1092 22.7874 14.1092C23.4823 14.1092 24.0701 14.8877 24.2649 15.9594L23.0423 16.6549L24.2891 17.3641C24.1913 18.0396 23.9401 18.6126 23.6013 18.9695C23.8352 19.1834 24.0069 19.4759 24.0822 19.8534Z" fill="white"/>
<path d="M0.0488281 18.7437C0.0488281 18.7437 0.333165 19.4091 1.32835 19.5842V18.9849" fill="#0A0A3C"/>
<path d="M31.3079 9.94971C31.3079 9.94971 31.1984 10.5374 30.64 10.8252C30.0817 11.1131 30.3201 10.1886 30.3201 10.1886" fill="#0A0A3C"/>
<path d="M50.3332 6.84767C49.223 6.84767 48.3234 7.73488 48.3234 8.82974C48.3234 9.92459 49.223 10.8118 50.3332 10.8118C51.4433 10.8118 52.3429 9.92459 52.3429 8.82974C52.3429 7.73488 51.4433 6.84767 50.3332 6.84767ZM48.4899 11.9104L48.7464 22.5928H52.2491L51.8854 11.6631L48.4899 11.9104V11.9104ZM123.738 10.2153L118.664 22.221L122.115 23.5178L122.829 21.6301L127.723 21.4942L128.317 23.4876L131.724 22.6004L127.149 10.1228L123.738 10.2172V10.2153ZM124.142 18.119L125.555 14.3418L126.68 18.0473L124.144 18.1171L124.142 18.119ZM147.899 13.481C146.735 13.4093 146.883 12.0218 147.865 11.8708C149.164 11.6613 150.435 12.1955 151.251 13.1053L153 10.6287C153 10.6287 149.74 7.34413 145.778 9.51685C143.007 11.0345 143.658 14.1134 144.638 15.1195C146.146 16.6712 147.669 16.1936 148.58 16.3691C149.281 16.5126 149.497 17.2054 149.354 17.6471C149.065 18.6721 148.159 18.6759 147.244 18.5173C146.238 18.3625 144.892 17.3885 144.892 17.3885L143.198 20.3201C143.198 20.3201 145.396 22.8873 149.434 21.9416C151.597 21.4187 153.189 19.8085 152.791 16.9656C152.355 13.9019 149.802 13.5791 147.899 13.4829V13.481ZM78.4044 9.44323L76.1401 6.45126L70.3405 12.0143L70.6678 7.83304L67.1996 7.71412L66.1239 20.7656L69.8276 21.0789L70.0381 17.4357L70.9435 16.4654L74.6873 21.9454L77.8263 19.3139L73.6691 14.0662L78.4044 9.44323V9.44323ZM37.0019 8.92601L38.4929 26.0171L42.4646 25.6773L41.4846 17.0865C41.4846 17.0865 48.2277 17.6962 47.4181 11.1308C46.6065 4.54847 38.2135 7.01756 37 8.92601H37.0019ZM41.1554 13.9491L40.7687 10.3739C41.4616 9.89061 44.2025 9.03738 44.5222 11.8576C44.8418 14.6778 41.1554 13.9491 41.1554 13.9491V13.9491ZM59.4593 19.0308C55.4742 19.0308 55.6523 12.7391 59.3693 12.7391C60.6383 12.7391 61.8882 13.3205 62.6921 14.6079L65.498 12.9694C65.498 12.9694 63.6567 8.45786 58.4391 9.42813C53.2214 10.3795 52.8826 15.3498 53.4358 17.6754C53.8645 19.5612 55.8839 22.5928 59.9588 22.5928C64.0338 22.5928 65.5344 18.1511 65.5344 18.1511L62.694 17.0581C62.694 17.0581 61.6929 19.0327 59.4593 19.0327V19.0308ZM140.048 8.19359C138.126 6.57584 134.635 5.94536 131.17 8.14073L132.013 20.4843C132.013 20.4843 140.04 22.0171 142.015 17.5848C143.975 13.1714 142.044 9.85852 140.046 8.1917L140.048 8.19359ZM139.286 15.4838C138.314 17.6622 135.222 16.8958 135.222 16.8958L134.702 10.3776C136.317 9.9699 137.517 9.94725 138.664 11.0591C139.828 12.1709 139.939 14.0001 139.286 15.4838ZM115.033 16.9487L115.083 15.0402L119.711 15.0912L120.117 12.3333L115.236 11.5858L115.303 10.2285L120.442 10.9137L121.284 7.5782L112.074 6.66834L111.309 20.035L118.404 20.6051L118.743 17.2733L115.033 16.9487V16.9487ZM105.871 6.04729L105.938 14.64L102.173 14.9421L101.976 6.13224L97.7284 6.44182L98.3141 24.0747L102.121 24.1615L102.2 18.1058L105.972 18.1417L106.173 23.8519L109.948 24.0407L109.481 6.01709L105.871 6.04352V6.04729ZM90.7652 17.9869L90.5355 16.0917L95.1235 15.4838V12.6957L90.2446 13.262L90.0513 11.2951L95.2861 10.742L95.5809 7.8236L86.3342 8.23134L87.5286 21.5678L96.5973 20.7807L96.446 17.4357L90.7652 17.9869V17.9869ZM82.4238 19.9822L81.6755 10.3172L78.213 10.7873L78.9939 23.6462L86.3495 23.2346L86.1332 19.6631L82.4238 19.9841V19.9822Z" fill="#0A0A3C"/>
<path fill-rule="evenodd" clip-rule="evenodd" d="M155.278 10.3221V12.1671H155.757V11.5471H156.065L156.35 12.1671H156.875L156.526 11.4584C156.609 11.4113 156.677 11.3475 156.73 11.2671C156.79 11.1754 156.82 11.0646 156.82 10.9346C156.82 10.8046 156.791 10.6946 156.732 10.6046C156.676 10.5129 156.598 10.4429 156.5 10.3946C156.403 10.3463 156.297 10.3221 156.18 10.3221H155.278ZM155.757 11.1996H156.058C156.127 11.1996 156.187 11.1771 156.237 11.1321C156.289 11.0871 156.315 11.0204 156.315 10.9321C156.315 10.8404 156.289 10.7754 156.237 10.7371C156.187 10.6971 156.128 10.6771 156.06 10.6771H155.757V11.1996Z" fill="#0A0A3C"/>
<path fill-rule="evenodd" clip-rule="evenodd" d="M155.223 13.1121C155.464 13.2154 155.723 13.2671 156 13.2671C156.277 13.2671 156.536 13.2154 156.777 13.1121C157.019 13.0088 157.232 12.8654 157.415 12.6821C157.598 12.4988 157.742 12.2863 157.845 12.0446C157.948 11.8029 158 11.5438 158 11.2671C158 10.9904 157.948 10.7313 157.845 10.4896C157.742 10.2479 157.598 10.0354 157.415 9.85209C157.232 9.66876 157.019 9.52543 156.777 9.42209C156.536 9.31876 156.277 9.26709 156 9.26709C155.723 9.26709 155.464 9.31876 155.223 9.42209C154.981 9.52543 154.768 9.66876 154.585 9.85209C154.402 10.0354 154.258 10.2479 154.155 10.4896C154.052 10.7313 154 10.9904 154 11.2671C154 11.5438 154.052 11.8029 154.155 12.0446C154.258 12.2863 154.402 12.4988 154.585 12.6821C154.768 12.8654 154.981 13.0088 155.223 13.1121ZM156.742 12.5421C156.521 12.6738 156.273 12.7396 156 12.7396C155.73 12.7396 155.483 12.6738 155.26 12.5421C155.037 12.4088 154.859 12.2313 154.728 12.0096C154.596 11.7863 154.53 11.5388 154.53 11.2671C154.53 10.9954 154.596 10.7488 154.728 10.5271C154.859 10.3038 155.037 10.1263 155.26 9.99459C155.483 9.86126 155.73 9.79458 156 9.79458C156.272 9.79458 156.518 9.86126 156.74 9.99459C156.963 10.1263 157.141 10.3038 157.272 10.5271C157.406 10.7488 157.472 10.9954 157.472 11.2671C157.472 11.5388 157.407 11.7863 157.275 12.0096C157.143 12.2313 156.966 12.4088 156.742 12.5421Z" fill="#0A0A3C"/>
</svg>
