<svg width="16" height="16" viewBox="0 0 16 16" fill="none" xmlns="http://www.w3.org/2000/svg">
<g clip-path="url(#clip0_589_6764)">
<path d="M3.27114 3.73333L3.94647 0.911335C3.98139 0.765601 4.06439 0.635883 4.18208 0.54311C4.29977 0.450338 4.44528 0.399923 4.59514 0.400002H10.8765C11.0262 0.400073 11.1716 0.450556 11.2891 0.543317C11.4067 0.636077 11.4896 0.765713 11.5245 0.911335L12.2011 3.73667L13.3951 8.73333L14.8725 14.9113C14.8959 15.0093 14.8969 15.1113 14.8753 15.2097C14.8537 15.3081 14.8101 15.4003 14.7477 15.4794C14.6853 15.5585 14.6059 15.6224 14.5152 15.6664C14.4246 15.7104 14.3252 15.7333 14.2245 15.7333H1.24514C1.14435 15.7334 1.04486 15.7106 0.954156 15.6666C0.86345 15.6227 0.783886 15.5588 0.72145 15.4797C0.659013 15.4005 0.615329 15.3083 0.593682 15.2098C0.572036 15.1114 0.57299 15.0093 0.596474 14.9113L2.07514 8.73333L3.27114 3.73333Z" fill="#9FEAFF"/>
<path d="M12.2018 3.73667L11.5258 0.911335C11.4909 0.765601 11.4079 0.635883 11.2902 0.54311C11.1725 0.450338 11.027 0.399923 10.8771 0.400002H4.59579C4.44593 0.399923 4.30042 0.450338 4.18273 0.54311C4.06504 0.635883 3.98204 0.765601 3.94712 0.911335L3.27179 3.73334L2.95312 5.06667H12.5191L12.2018 3.73667Z" fill="#CFF5FF"/>
<path d="M0.401367 7.06667V5.4C0.401367 5.31159 0.436486 5.22681 0.498998 5.1643C0.56151 5.10178 0.646295 5.06667 0.734701 5.06667H15.4014C15.4898 5.06667 15.5746 5.10178 15.6371 5.1643C15.6996 5.22681 15.7347 5.31159 15.7347 5.4V7.06667H0.401367Z" fill="#CFF5FF"/>
<path fill-rule="evenodd" clip-rule="evenodd" d="M1.53516 10.9221C1.53516 10.738 1.68439 10.5888 1.86849 10.5888H13.8685C14.0526 10.5888 14.2018 10.738 14.2018 10.9221C14.2018 11.1062 14.0526 11.2555 13.8685 11.2555H1.86849C1.68439 11.2555 1.53516 11.1062 1.53516 10.9221Z" fill="#0A0A3C"/>
<path fill-rule="evenodd" clip-rule="evenodd" d="M7.73568 10.7333C7.91977 10.7333 8.06901 10.8826 8.06901 11.0667V15.7333C8.06901 15.9174 7.91977 16.0667 7.73568 16.0667C7.55158 16.0667 7.40234 15.9174 7.40234 15.7333V11.0667C7.40234 10.8826 7.55158 10.7333 7.73568 10.7333Z" fill="#0A0A3C"/>
<path fill-rule="evenodd" clip-rule="evenodd" d="M2.15306 8.40916C2.33209 8.45201 2.44249 8.63189 2.39964 8.81092L0.920977 14.9889C0.909235 15.0379 0.908739 15.089 0.919562 15.1383C0.930386 15.1875 0.952228 15.2336 0.983446 15.2732C1.01466 15.3127 1.05444 15.3447 1.0998 15.3667C1.14515 15.3886 1.1949 15.4 1.24529 15.4H14.2246C14.275 15.4 14.3247 15.3885 14.37 15.3665C14.4153 15.3446 14.4551 15.3126 14.4863 15.273C14.5174 15.2335 14.5392 15.1874 14.5501 15.1382C14.5609 15.089 14.5604 15.038 14.5486 14.989L13.0713 8.81086C13.0285 8.63181 13.1389 8.45196 13.3179 8.40914C13.497 8.36633 13.6768 8.47676 13.7197 8.65581L15.197 14.8337C15.2322 14.9806 15.2336 15.1336 15.2012 15.2812C15.1688 15.4288 15.1033 15.5671 15.0098 15.6858C14.9163 15.8044 14.797 15.9003 14.6611 15.9663C14.5252 16.0323 14.3761 16.0666 14.225 16.0667H1.24564C1.24558 16.0667 1.2457 16.0667 1.24564 16.0667C1.09452 16.0667 0.945171 16.0325 0.809164 15.9666C0.673105 15.9007 0.55376 15.8048 0.460104 15.6861C0.366449 15.5675 0.300923 15.4291 0.268453 15.2814C0.235989 15.1338 0.237414 14.9807 0.272622 14.8337C0.272628 14.8337 0.272616 14.8338 0.272622 14.8337L1.75129 8.65574C1.79414 8.47671 1.97402 8.36631 2.15306 8.40916Z" fill="#0A0A3C"/>
<path fill-rule="evenodd" clip-rule="evenodd" d="M4.59474 0.733332C4.51981 0.733293 4.44705 0.7585 4.3882 0.804887C4.32936 0.851273 4.28786 0.916132 4.2704 0.988999L3.59509 3.81091C3.55224 3.98995 3.37237 4.10036 3.19333 4.05751C3.01429 4.01467 2.90388 3.83479 2.94673 3.65575L3.62206 0.833753C3.67444 0.615153 3.79896 0.420487 3.97549 0.281329C4.15198 0.142206 4.37018 0.0665873 4.59491 0.0666657C4.59493 0.0666657 4.59489 0.0666657 4.59491 0.0666657H10.8762C11.1009 0.0667728 11.3191 0.142498 11.4954 0.281638C11.6717 0.420779 11.7961 0.615232 11.8484 0.833666L12.5251 3.65903C12.568 3.83806 12.4576 4.01795 12.2785 4.06083C12.0995 4.10371 11.9196 3.99334 11.8767 3.8143L11.2001 0.988999C11.2001 0.988989 11.2001 0.989009 11.2001 0.988999C11.1826 0.9162 11.1412 0.851364 11.0824 0.80499C11.0237 0.758642 10.9511 0.733404 10.8762 0.733332M10.8762 0.733332L4.59474 0.733332Z" fill="#0A0A3C"/>
<path fill-rule="evenodd" clip-rule="evenodd" d="M0.263622 4.9286C0.388646 4.80357 0.558215 4.73333 0.735026 4.73333H15.4017C15.5785 4.73333 15.7481 4.80357 15.8731 4.9286C15.9981 5.05362 16.0684 5.22319 16.0684 5.4V8.06667C16.0684 8.25076 15.9191 8.4 15.735 8.4C15.5509 8.4 15.4017 8.25076 15.4017 8.06667V5.4L0.735026 5.4L0.735026 8.06667C0.735026 8.25076 0.585788 8.4 0.401693 8.4C0.217598 8.4 0.0683594 8.25076 0.0683594 8.06667V5.4C0.0683594 5.22319 0.138597 5.05362 0.263622 4.9286Z" fill="#0A0A3C"/>
<path fill-rule="evenodd" clip-rule="evenodd" d="M0.0664062 7.06667C0.0664062 6.88257 0.215645 6.73333 0.39974 6.73333H15.7357C15.9198 6.73333 16.0691 6.88257 16.0691 7.06667C16.0691 7.25076 15.9198 7.4 15.7357 7.4H0.39974C0.215645 7.4 0.0664062 7.25076 0.0664062 7.06667Z" fill="#0A0A3C"/>
</g>
<path d="M3.5 6C4.32843 6 5 5.32843 5 4.5C5 3.67157 4.32843 3 3.5 3C2.67157 3 2 3.67157 2 4.5C2 5.32843 2.67157 6 3.5 6Z" fill="#FFD639" stroke="#0A0A3C" stroke-width="0.5" stroke-linecap="round" stroke-linejoin="round"/>
<defs>
<clipPath id="clip0_589_6764">
<rect width="16" height="16" fill="white"/>
</clipPath>
</defs>
</svg>
