<svg width="32" height="32" viewBox="0 0 32 32" fill="none" xmlns="http://www.w3.org/2000/svg">
<g clip-path="url(#clip0_588_5225)">
<path d="M16.0007 24C20.7871 24 24.6673 20.1198 24.6673 15.3333C24.6673 10.5469 20.7871 6.66667 16.0007 6.66667C11.2142 6.66667 7.33398 10.5469 7.33398 15.3333C7.33398 20.1198 11.2142 24 16.0007 24Z" fill="#CFF5FF"/>
<path d="M16 6.66667C16.5933 6.66667 17.1734 6.49072 17.6667 6.16108C18.1601 5.83143 18.5446 5.3629 18.7716 4.81472C18.9987 4.26654 19.0581 3.66334 18.9424 3.0814C18.8266 2.49945 18.5409 1.9649 18.1213 1.54535C17.7018 1.12579 17.1672 0.840067 16.5853 0.724312C16.0033 0.608556 15.4001 0.667966 14.852 0.895029C14.3038 1.12209 13.8352 1.50661 13.5056 1.99996C13.1759 2.4933 13 3.07332 13 3.66667C13 4.46232 13.3161 5.22538 13.8787 5.78799C14.4413 6.3506 15.2044 6.66667 16 6.66667Z" fill="#FFD639"/>
<path fill-rule="evenodd" clip-rule="evenodd" d="M14.5975 0.27911C15.2675 0.00158868 16.0047 -0.0710235 16.716 0.0704556C17.4272 0.211935 18.0806 0.561151 18.5934 1.07394C19.1062 1.58674 19.4554 2.24007 19.5969 2.95134C19.7383 3.6626 19.6657 4.39985 19.3882 5.06984C19.1107 5.73984 18.6407 6.31249 18.0377 6.71539C17.4348 7.11829 16.7258 7.33334 16.0007 7.33334C15.0282 7.33334 14.0956 6.94703 13.4079 6.25939C12.7203 5.57176 12.334 4.63913 12.334 3.66667C12.334 2.94147 12.549 2.23256 12.9519 1.62958C13.3548 1.0266 13.9275 0.556631 14.5975 0.27911ZM16.0007 6C16.4621 6 16.9133 5.86315 17.297 5.60676C17.6807 5.35037 17.9798 4.98596 18.1564 4.5596C18.333 4.13323 18.3792 3.66408 18.2892 3.21146C18.1991 2.75884 17.9769 2.34308 17.6506 2.01675C17.3242 1.69043 16.9085 1.4682 16.4559 1.37817C16.0032 1.28814 15.5341 1.33434 15.1077 1.51095C14.6814 1.68755 14.3169 1.98662 14.0606 2.37034C13.8042 2.75405 13.6673 3.20518 13.6673 3.66667C13.6673 4.28551 13.9132 4.879 14.3507 5.31658C14.7883 5.75417 15.3818 6 16.0007 6Z" fill="#0A0A3C"/>
<path d="M22 12.6667C21.66 11.3334 20.8857 10.1514 19.7992 9.30715C18.7127 8.46294 17.3759 8.00466 16 8.00466C14.6241 8.00466 13.2873 8.46294 12.2008 9.30715C11.1143 10.1514 10.34 11.3334 10 12.6667H22Z" fill="#9FEAFF"/>
<path fill-rule="evenodd" clip-rule="evenodd" d="M11.7925 8.78071C12.9959 7.84561 14.4766 7.33799 16.0007 7.33799C17.5247 7.33799 19.0054 7.84561 20.2089 8.78071C21.4123 9.71582 22.2701 11.0251 22.6467 12.5019C22.6975 12.7014 22.6534 12.9132 22.5271 13.0757C22.4008 13.2382 22.2065 13.3333 22.0007 13.3333H10.0007C9.79482 13.3333 9.60052 13.2382 9.47422 13.0757C9.34793 12.9132 9.3038 12.7014 9.35466 12.5019C9.73125 11.0251 10.589 9.71582 11.7925 8.78071ZM16.0007 8.67132C14.7729 8.67132 13.5801 9.08026 12.6105 9.83358C11.8738 10.406 11.2979 11.1525 10.9307 12H21.0706C20.7034 11.1525 20.1275 10.406 19.3908 9.83358C18.4213 9.08026 17.2284 8.67132 16.0007 8.67132Z" fill="#0A0A3C"/>
<path d="M6.66602 25.3333C7.25936 25.3333 7.83938 25.1574 8.33273 24.8277C8.82607 24.4981 9.21059 24.0296 9.43766 23.4814C9.66472 22.9332 9.72413 22.33 9.60837 21.7481C9.49262 21.1661 9.20689 20.6316 8.78734 20.212C8.36778 19.7925 7.83323 19.5067 7.25129 19.391C6.66934 19.2752 6.06614 19.3346 5.51797 19.5617C4.96979 19.7888 4.50125 20.1733 4.17161 20.6666C3.84196 21.16 3.66602 21.74 3.66602 22.3333C3.66602 22.7273 3.74361 23.1174 3.89438 23.4814C4.04514 23.8454 4.26612 24.1761 4.5447 24.4547C4.82327 24.7332 5.15399 24.9542 5.51797 25.105C5.88194 25.2557 6.27205 25.3333 6.66602 25.3333Z" fill="#FFD639"/>
<path fill-rule="evenodd" clip-rule="evenodd" d="M5.26349 18.9458C5.93349 18.6683 6.67073 18.5956 7.382 18.7371C8.09326 18.8786 8.7466 19.2278 9.25939 19.7406C9.77218 20.2534 10.1214 20.9067 10.2629 21.618C10.4044 22.3293 10.3317 23.0665 10.0542 23.7365C9.7767 24.4065 9.30674 24.9792 8.70376 25.3821C8.10078 25.785 7.39187 26 6.66667 26C6.18515 26 5.70836 25.9052 5.26349 25.7209C4.81863 25.5366 4.41442 25.2665 4.07394 24.9261C3.73346 24.5856 3.46338 24.1814 3.27911 23.7365C3.09484 23.2916 3 22.8148 3 22.3333C3 21.6081 3.21505 20.8992 3.61794 20.2962C4.02084 19.6933 4.5935 19.2233 5.26349 18.9458ZM6.66667 24.6667C7.12816 24.6667 7.57928 24.5298 7.963 24.2734C8.34671 24.017 8.64578 23.6526 8.82239 23.2263C8.99899 22.7999 9.0452 22.3307 8.95517 21.8781C8.86513 21.4255 8.64291 21.0097 8.31658 20.6834C7.99026 20.3571 7.5745 20.1349 7.12188 20.0448C6.66926 19.9548 6.2001 20.001 5.77374 20.1776C5.34738 20.3542 4.98296 20.6533 4.72657 21.037C4.47018 21.4207 4.33333 21.8718 4.33333 22.3333C4.33333 22.6398 4.39369 22.9432 4.51095 23.2263C4.62821 23.5094 4.80008 23.7666 5.01675 23.9832C5.23342 24.1999 5.49065 24.3718 5.77374 24.4891C6.05683 24.6063 6.36025 24.6667 6.66667 24.6667Z" fill="#0A0A3C"/>
<path d="M12.666 31.3333C12.326 30.0001 11.5517 28.818 10.4652 27.9738C9.37867 27.1296 8.04194 26.6713 6.66602 26.6713C5.29009 26.6713 3.95336 27.1296 2.86686 27.9738C1.78036 28.818 1.00599 30.0001 0.666016 31.3333H12.666Z" fill="#9FEAFF"/>
<path fill-rule="evenodd" clip-rule="evenodd" d="M2.45848 27.4474C3.66195 26.5123 5.14261 26.0047 6.66667 26.0047C8.19074 26.0047 9.67139 26.5123 10.8749 27.4474C12.0783 28.3825 12.9361 29.6918 13.3127 31.1686C13.3635 31.3681 13.3194 31.5798 13.1931 31.7424C13.0668 31.9049 12.8725 32 12.6667 32H0.666673C0.460833 32 0.266535 31.9049 0.14024 31.7424C0.013945 31.5798 -0.0301834 31.3681 0.0206779 31.1686C0.397261 29.6918 1.255 28.3825 2.45848 27.4474ZM6.66667 27.338C5.43889 27.338 4.24608 27.7469 3.27656 28.5002C2.53984 29.0727 1.96395 29.8192 1.59675 30.6667H11.7366C11.3694 29.8192 10.7935 29.0727 10.0568 28.5002C9.08727 27.7469 7.89446 27.338 6.66667 27.338Z" fill="#0A0A3C"/>
<path d="M25.334 25.3333C25.9273 25.3333 26.5073 25.1574 27.0007 24.8277C27.494 24.4981 27.8786 24.0296 28.1056 23.4814C28.3327 22.9332 28.3921 22.33 28.2763 21.7481C28.1606 21.1661 27.8749 20.6316 27.4553 20.212C27.0357 19.7925 26.5012 19.5067 25.9193 19.391C25.3373 19.2752 24.7341 19.3346 24.1859 19.5617C23.6378 19.7888 23.1692 20.1733 22.8396 20.6666C22.5099 21.16 22.334 21.74 22.334 22.3333C22.334 22.7273 22.4116 23.1174 22.5623 23.4814C22.7131 23.8454 22.9341 24.1761 23.2127 24.4547C23.4912 24.7332 23.822 24.9542 24.1859 25.105C24.5499 25.2557 24.94 25.3333 25.334 25.3333Z" fill="#FFD639"/>
<path fill-rule="evenodd" clip-rule="evenodd" d="M23.9295 18.9458C24.5995 18.6683 25.3367 18.5956 26.048 18.7371C26.7593 18.8786 27.4126 19.2278 27.9254 19.7406C28.4382 20.2534 28.7874 20.9067 28.9289 21.618C29.0704 22.3293 28.9978 23.0665 28.7202 23.7365C28.4427 24.4065 27.9728 24.9792 27.3698 25.3821C26.7668 25.785 26.0579 26 25.3327 26C24.8512 26 24.3744 25.9052 23.9295 25.7209C23.4846 25.5366 23.0804 25.2665 22.74 24.9261C22.3995 24.5856 22.1294 24.1814 21.9451 23.7365C21.7609 23.2916 21.666 22.8148 21.666 22.3333C21.666 21.6081 21.8811 20.8992 22.284 20.2962C22.6869 19.6933 23.2595 19.2233 23.9295 18.9458ZM25.7879 20.0448C25.3353 19.9548 24.8661 20.001 24.4398 20.1776C24.0134 20.3542 23.649 20.6533 23.3926 21.037C23.1362 21.4207 22.9993 21.8718 22.9993 22.3333C22.9993 22.6398 23.0597 22.9432 23.177 23.2263C23.2942 23.5094 23.4661 23.7666 23.6828 23.9832C23.8994 24.1999 24.1567 24.3718 24.4398 24.4891C24.7228 24.6063 25.0263 24.6667 25.3327 24.6667C25.7942 24.6667 26.2453 24.5298 26.629 24.2734C27.0127 24.017 27.3118 23.6526 27.4884 23.2263C27.665 22.7999 27.7112 22.3307 27.6212 21.8781C27.5311 21.4255 27.3089 21.0097 26.9826 20.6834C26.6563 20.3571 26.2405 20.1349 25.7879 20.0448Z" fill="#0A0A3C"/>
<path d="M31.334 31.3333C30.994 30.0001 30.2196 28.818 29.1331 27.9738C28.0466 27.1296 26.7099 26.6713 25.334 26.6713C23.9581 26.6713 22.6213 27.1296 21.5348 27.9738C20.4483 28.818 19.674 30.0001 19.334 31.3333H31.334Z" fill="#9FEAFF"/>
<path fill-rule="evenodd" clip-rule="evenodd" d="M21.1245 27.4474C22.328 26.5123 23.8086 26.0047 25.3327 26.0047C26.8568 26.0047 28.3374 26.5123 29.5409 27.4474C30.7444 28.3825 31.6021 29.6918 31.9787 31.1686C32.0295 31.3681 31.9854 31.5798 31.8591 31.7424C31.7328 31.9049 31.5385 32 31.3327 32H19.3327C19.1268 32 18.9326 31.9049 18.8063 31.7424C18.68 31.5798 18.6358 31.3681 18.6867 31.1686C19.0633 29.6918 19.921 28.3825 21.1245 27.4474ZM25.3327 27.338C24.1049 27.338 22.9121 27.7469 21.9426 28.5002C21.2059 29.0727 20.63 29.8192 20.2628 30.6667H30.4026C30.0354 29.8192 29.4595 29.0727 28.7228 28.5002C27.7533 27.7469 26.5605 27.338 25.3327 27.338Z" fill="#0A0A3C"/>
<path fill-rule="evenodd" clip-rule="evenodd" d="M11.3815 24.9747C11.5192 24.6332 11.9077 24.468 12.2491 24.6057C14.6555 25.5759 17.3442 25.5759 19.7506 24.6057C20.092 24.468 20.4805 24.6332 20.6182 24.9747C20.7558 25.3162 20.5906 25.7046 20.2491 25.8423C17.5229 26.9415 14.4768 26.9415 11.7506 25.8423C11.4091 25.7046 11.2439 25.3162 11.3815 24.9747Z" fill="#0A0A3C"/>
<path fill-rule="evenodd" clip-rule="evenodd" d="M21.4498 6.13926C21.6571 5.83499 22.0719 5.75642 22.3761 5.96375C24.1016 7.13951 25.4692 8.76851 26.3284 10.6715C27.1877 12.5744 27.5053 14.6776 27.2462 16.7494C27.2006 17.1147 26.8674 17.3739 26.502 17.3282C26.1367 17.2825 25.8775 16.9493 25.9232 16.584C26.1518 14.7556 25.8715 12.8995 25.1132 11.2202C24.3549 9.5408 23.148 8.1032 21.6253 7.06559C21.321 6.85825 21.2425 6.44352 21.4498 6.13926Z" fill="#0A0A3C"/>
<path fill-rule="evenodd" clip-rule="evenodd" d="M10.5511 6.13926C10.7584 6.44352 10.6799 6.85825 10.3756 7.06559C8.85288 8.1032 7.64596 9.5408 6.88766 11.2202C6.12937 12.8995 5.8491 14.7556 6.0777 16.584C6.12338 16.9493 5.86424 17.2825 5.4989 17.3282C5.13355 17.3739 4.80035 17.1147 4.75467 16.7494C4.49563 14.6776 4.81321 12.5744 5.67247 10.6715C6.53172 8.76851 7.89933 7.13951 9.62478 5.96375C9.92904 5.75642 10.3438 5.83499 10.5511 6.13926Z" fill="#0A0A3C"/>
</g>
<defs>
<clipPath id="clip0_588_5225">
<rect width="32" height="32" fill="white"/>
</clipPath>
</defs>
</svg>
