<svg width="32" height="32" viewBox="0 0 32 32" fill="none" xmlns="http://www.w3.org/2000/svg">
<g clip-path="url(#clip0_589_6764)">
<path d="M6.54228 7.46667L7.89295 1.82267C7.96278 1.5312 8.12878 1.27176 8.36416 1.08622C8.59954 0.900672 8.89056 0.799843 9.19028 0.8H21.7529C22.0524 0.800143 22.3432 0.901109 22.5783 1.08663C22.8134 1.27215 22.9792 1.53142 23.0489 1.82267L24.4023 7.47333L26.7903 17.4667L29.7449 29.8227C29.7919 30.0186 29.7938 30.2226 29.7506 30.4194C29.7074 30.6161 29.6201 30.8006 29.4954 30.9588C29.3707 31.117 29.2117 31.2449 29.0305 31.3329C28.8492 31.4208 28.6504 31.4666 28.4489 31.4667H2.49028C2.2887 31.4668 2.08973 31.4212 1.90831 31.3333C1.7269 31.2454 1.56777 31.1175 1.4429 30.9593C1.31803 30.8011 1.23066 30.6166 1.18736 30.4197C1.14407 30.2228 1.14598 30.0187 1.19295 29.8227L4.15028 17.4667L6.54228 7.46667Z" fill="#9FEAFF"/>
<path d="M24.4026 7.47333L23.0506 1.82267C22.9808 1.5312 22.8148 1.27176 22.5794 1.08622C22.344 0.900672 22.053 0.799843 21.7533 0.8H9.19061C8.89089 0.799843 8.59986 0.900672 8.36448 1.08622C8.12911 1.27176 7.96311 1.5312 7.89327 1.82267L6.54261 7.46667L5.90527 10.1333H25.0373L24.4026 7.47333Z" fill="#CFF5FF"/>
<path d="M0.802734 14.1333V10.8C0.802734 10.6232 0.872972 10.4536 0.997996 10.3286C1.12302 10.2036 1.29259 10.1333 1.4694 10.1333H30.8027C30.9795 10.1333 31.1491 10.2036 31.2741 10.3286C31.3992 10.4536 31.4694 10.6232 31.4694 10.8V14.1333H0.802734Z" fill="#CFF5FF"/>
<path fill-rule="evenodd" clip-rule="evenodd" d="M3.06934 21.8442C3.06934 21.476 3.36781 21.1776 3.736 21.1776H27.736C28.1042 21.1776 28.4027 21.476 28.4027 21.8442C28.4027 22.2124 28.1042 22.5109 27.736 22.5109H3.736C3.36781 22.5109 3.06934 22.2124 3.06934 21.8442Z" fill="#0A0A3C"/>
<path fill-rule="evenodd" clip-rule="evenodd" d="M15.4714 21.4667C15.8395 21.4667 16.138 21.7651 16.138 22.1333V31.4667C16.138 31.8349 15.8395 32.1333 15.4714 32.1333C15.1032 32.1333 14.8047 31.8349 14.8047 31.4667V22.1333C14.8047 21.7651 15.1032 21.4667 15.4714 21.4667Z" fill="#0A0A3C"/>
<path fill-rule="evenodd" clip-rule="evenodd" d="M4.30611 16.8183C4.66419 16.904 4.88499 17.2638 4.79929 17.6218L1.84195 29.9778C1.81847 30.0759 1.81748 30.1781 1.83912 30.2765C1.86077 30.375 1.90446 30.4672 1.96689 30.5463C2.02933 30.6254 2.10889 30.6894 2.1996 30.7333C2.29031 30.7773 2.3898 30.8001 2.49058 30.8H28.4493C28.55 30.8 28.6494 30.7771 28.74 30.7331C28.8307 30.6891 28.9101 30.6252 28.9725 30.5461C29.0349 30.467 29.0785 30.3747 29.1001 30.2764C29.1217 30.178 29.1208 30.076 29.0973 29.978L26.1425 17.6217C26.0569 17.2636 26.2778 16.9039 26.6359 16.8183C26.994 16.7326 27.3537 16.9535 27.4393 17.3116L30.3939 29.6673C30.4643 29.9612 30.4672 30.2672 30.4024 30.5624C30.3376 30.8576 30.2067 31.1342 30.0196 31.3715C29.8325 31.6088 29.5941 31.8007 29.3222 31.9326C29.0503 32.0646 28.7521 32.1332 28.4499 32.1333H2.49128C2.49116 32.1333 2.4914 32.1333 2.49128 32.1333C2.18903 32.1334 1.89034 32.065 1.61833 31.9333C1.34621 31.8015 1.10752 31.6097 0.920208 31.3723C0.732898 31.1349 0.601846 30.8582 0.536906 30.5629C0.471978 30.2676 0.474829 29.9615 0.545244 29.6675C0.545256 29.6674 0.545232 29.6675 0.545244 29.6675L3.50258 17.3115C3.58828 16.9534 3.94804 16.7326 4.30611 16.8183Z" fill="#0A0A3C"/>
<path fill-rule="evenodd" clip-rule="evenodd" d="M9.19045 1.46667C9.04059 1.46659 8.89507 1.517 8.77739 1.60978C8.6597 1.70255 8.5767 1.83227 8.54178 1.978L7.19116 7.62183C7.10546 7.97991 6.74572 8.20072 6.38764 8.11503C6.02956 8.02933 5.80874 7.66959 5.89444 7.31151L7.2451 1.66751C7.34985 1.23031 7.59889 0.840977 7.95196 0.562659C8.30494 0.284414 8.74134 0.133177 9.1908 0.133334C9.19084 0.133334 9.19075 0.133334 9.1908 0.133334H21.7535C22.2027 0.133548 22.6391 0.284997 22.9917 0.563279C23.3444 0.84156 23.5931 1.23047 23.6978 1.66733L25.0511 7.31806C25.1369 7.67612 24.9161 8.03591 24.5581 8.12167C24.2 8.20742 23.8402 7.98667 23.7545 7.62861L22.4011 1.978C22.4011 1.97798 22.4012 1.97802 22.4011 1.978C22.3662 1.8324 22.2833 1.70273 22.1658 1.60998C22.0483 1.51729 21.9031 1.46681 21.7535 1.46667M21.7535 1.46667L9.19045 1.46667Z" fill="#0A0A3C"/>
<path fill-rule="evenodd" clip-rule="evenodd" d="M0.526266 9.85719C0.776315 9.60714 1.11545 9.46667 1.46908 9.46667H30.8024C31.156 9.46667 31.4952 9.60714 31.7452 9.85719C31.9953 10.1072 32.1357 10.4464 32.1357 10.8V16.1333C32.1357 16.5015 31.8373 16.8 31.4691 16.8C31.1009 16.8 30.8024 16.5015 30.8024 16.1333V10.8L1.46908 10.8L1.46908 16.1333C1.46908 16.5015 1.1706 16.8 0.802409 16.8C0.434219 16.8 0.135742 16.5015 0.135742 16.1333V10.8C0.135742 10.4464 0.276218 10.1072 0.526266 9.85719Z" fill="#0A0A3C"/>
<path fill-rule="evenodd" clip-rule="evenodd" d="M0.132812 14.1333C0.132812 13.7651 0.431289 13.4667 0.799479 13.4667H31.4715C31.8397 13.4667 32.1381 13.7651 32.1381 14.1333C32.1381 14.5015 31.8397 14.8 31.4715 14.8H0.799479C0.431289 14.8 0.132812 14.5015 0.132812 14.1333Z" fill="#0A0A3C"/>
</g>
<path d="M7 12C8.65685 12 10 10.6569 10 9C10 7.34315 8.65685 6 7 6C5.34315 6 4 7.34315 4 9C4 10.6569 5.34315 12 7 12Z" fill="#FFD639" stroke="#0A0A3C" stroke-linecap="round" stroke-linejoin="round"/>
<defs>
<clipPath id="clip0_589_6764">
<rect width="32" height="32" fill="white"/>
</clipPath>
</defs>
</svg>
