<svg width="40" height="40" viewBox="0 0 40 40" fill="none" xmlns="http://www.w3.org/2000/svg">
<g clip-path="url(#clip0_588_5183)">
<path d="M10 39.1667C10 35.945 14.4767 33.3333 20 33.3333C25.5233 33.3333 30 35.945 30 39.1667H10Z" fill="#FFD639"/>
<path d="M20.0004 36.6667C23.4381 36.6192 26.844 37.3305 29.9754 38.75C29.6087 35.7217 25.2837 33.3333 20.0004 33.3333C14.7171 33.3333 10.3921 35.7217 10.0254 38.75C13.1568 37.3305 16.5627 36.6192 20.0004 36.6667V36.6667Z" fill="#FFE88E"/>
<path d="M30.9993 15.8833C30.2509 23.37 21.2693 28.9917 13.9026 23.8433C12.4875 22.8166 11.3099 21.4973 10.4498 19.9752C9.58963 18.453 9.06708 16.7636 8.91759 15.0217L7.58426 1.75001C7.57257 1.63378 7.58546 1.51639 7.62207 1.40546C7.65869 1.29453 7.71822 1.19254 7.79679 1.1061C7.87537 1.01966 7.97125 0.950714 8.0782 0.903724C8.18514 0.856733 8.30078 0.832753 8.41759 0.833339H31.5843C31.7011 0.832753 31.8167 0.856733 31.9236 0.903724C32.0306 0.950714 32.1265 1.01966 32.205 1.1061C32.2836 1.19254 32.3432 1.29453 32.3798 1.40546C32.4164 1.51639 32.4293 1.63378 32.4176 1.75001L30.9993 15.8833Z" fill="#FFD639"/>
<path d="M20.0005 0.833339H8.42052C8.30371 0.832753 8.18807 0.856733 8.08112 0.903724C7.97418 0.950714 7.8783 1.01966 7.79972 1.1061C7.72115 1.19254 7.66162 1.29453 7.625 1.40546C7.58839 1.51639 7.5755 1.63378 7.58719 1.75001L8.92052 15.0217C9.06941 16.7632 9.5912 18.4524 10.4505 19.9745C11.3097 21.4966 12.4864 22.8161 13.9005 23.8433C15.6781 25.1236 17.8099 25.8191 20.0005 25.8333V0.833339Z" fill="#FFE88E"/>
<path d="M20.7981 5.47834L22.5114 9.16667H25.8448C26.0131 9.15935 26.1796 9.2044 26.3213 9.2956C26.463 9.3868 26.5729 9.51967 26.6359 9.67593C26.699 9.83219 26.7121 10.0042 26.6734 10.1681C26.6346 10.3321 26.5461 10.4801 26.4198 10.5917L23.5264 13.4417L25.1298 17.1233C25.1999 17.292 25.2155 17.4783 25.1742 17.6562C25.1329 17.8342 25.0369 17.9947 24.8997 18.1152C24.7624 18.2357 24.5909 18.3101 24.4091 18.328C24.2274 18.3459 24.0446 18.3064 23.8864 18.215L20.0131 16.0367L16.1398 18.215C15.9817 18.3064 15.7989 18.3459 15.6171 18.328C15.4353 18.3101 15.2638 18.2357 15.1265 18.1152C14.9893 17.9947 14.8933 17.8342 14.852 17.6562C14.8107 17.4783 14.8263 17.292 14.8964 17.1233L16.4998 13.4417L13.6064 10.595C13.479 10.4838 13.3893 10.3358 13.3497 10.1713C13.3102 10.0068 13.3228 9.83417 13.3858 9.6772C13.4488 9.52024 13.5591 9.38677 13.7014 9.29529C13.8436 9.20381 14.0108 9.15886 14.1798 9.16667H17.5131L19.2281 5.475C19.3028 5.33107 19.4156 5.21046 19.5542 5.12639C19.6929 5.04232 19.852 4.99803 20.0141 4.99837C20.1763 4.99871 20.3352 5.04368 20.4735 5.12834C20.6118 5.213 20.7241 5.33409 20.7981 5.47834V5.47834Z" fill="white"/>
<path fill-rule="evenodd" clip-rule="evenodd" d="M8.43735 0.85449C8.02399 0.96633 7.60275 1.33333 7.40803 1.75125C7.24999 2.09041 7.25139 2.42797 7.41755 4.06385C7.49603 4.83597 7.56019 5.49749 7.56019 5.53385C7.56019 5.59461 7.36895 5.59997 5.20859 5.59997C2.61999 5.59997 2.62663 5.59945 2.12019 5.85009C1.75995 6.02837 1.22439 6.56513 1.05059 6.92209C0.824388 7.38661 0.801428 7.56897 0.800788 8.90793C0.800148 10.2216 0.845428 10.7434 1.01751 11.4057C1.46111 13.1131 2.54407 14.6451 3.99051 15.6115C4.63123 16.0396 5.50987 16.44 5.80859 16.44C6.15507 16.44 6.50319 16.1664 6.60095 15.8173C6.71879 15.3964 6.47811 14.9836 6.00535 14.7959C5.06427 14.4224 4.25259 13.8223 3.66399 13.0647C3.36123 12.6751 3.24867 12.4984 3.04299 12.0898C2.56615 11.1427 2.41991 10.3001 2.44663 8.65445C2.46007 7.82845 2.46131 7.81809 2.56959 7.63385C2.65083 7.49565 2.73271 7.42097 2.88747 7.34385L3.09591 7.23997H5.41807H7.74027L8.17415 11.57C8.41279 13.9515 8.64071 16.0907 8.68063 16.3238C9.12907 18.9414 10.4057 21.3639 12.3045 23.2C13.4549 24.3124 14.6534 25.0909 16.1202 25.6786C16.9917 26.0278 18.1409 26.302 19.0202 26.3706L19.1402 26.38L19.1505 29.1667L19.1607 31.9535L19.0505 31.9746C18.9898 31.9863 18.7692 32.007 18.5602 32.0208C17.7195 32.0761 16.5387 32.2857 15.6149 32.5435C13.3917 33.164 11.4853 34.3334 10.5421 35.6551C9.91499 36.534 9.64991 37.2389 9.61515 38.12C9.59663 38.5896 9.60107 38.6296 9.68815 38.7783C9.73915 38.8654 9.85875 38.9914 9.95399 39.0583L10.1271 39.18H20.0002H29.8733L30.0464 39.0583C30.3174 38.8678 30.3987 38.6872 30.3995 38.2744C30.4037 36.077 28.4521 33.9785 25.3602 32.8559C24.1979 32.4339 22.6246 32.0987 21.4402 32.0208C21.2312 32.007 21.0107 31.9863 20.9502 31.9747L20.8402 31.9536V29.1811C20.8402 26.1082 20.8167 26.36 21.1039 26.36C21.1793 26.36 21.4163 26.3319 21.6306 26.2976C24.5347 25.8323 27.2141 24.2263 29.0537 21.8483C29.9594 20.6776 30.719 19.1539 31.0597 17.8247C31.2817 16.9584 31.3498 16.4097 31.8153 11.74L32.2619 7.25997L34.58 7.24965L36.898 7.23933L37.1091 7.34261C37.2683 7.42045 37.3474 7.49197 37.4302 7.63293C37.5387 7.81737 37.5404 7.83097 37.5539 8.61805C37.5825 10.2789 37.434 11.143 36.9574 12.0898C36.3249 13.3461 35.3085 14.2746 33.995 14.7959C33.5223 14.9836 33.2816 15.3964 33.3994 15.8173C33.4972 16.1664 33.8453 16.44 34.1918 16.44C34.4905 16.44 35.3691 16.0396 36.0099 15.6115C37.5845 14.5594 38.7216 12.8365 39.0861 10.9507C39.1623 10.5563 39.1752 10.3277 39.19 9.11997C39.2088 7.58101 39.1909 7.41717 38.95 6.92257C38.776 6.56513 38.2407 6.02849 37.8802 5.85009C37.3737 5.59945 37.3804 5.59997 34.7918 5.59997C32.5787 5.59997 32.4402 5.59585 32.4405 5.52997C32.4406 5.49145 32.5041 4.84797 32.5815 4.09997C32.7217 2.74581 32.7499 2.23869 32.6975 2.01665C32.6023 1.61317 32.1836 1.12149 31.7703 0.92781L31.5402 0.81997L20.0802 0.81249C11.0837 0.80661 8.58087 0.81565 8.43735 0.85449ZM8.93915 2.60997C8.95227 2.70349 9.25015 5.65097 9.60107 9.15997C9.95203 12.669 10.2679 15.72 10.303 15.94C10.7867 18.9702 12.6079 21.7585 15.1232 23.3201C17.6162 24.8678 20.4469 25.175 23.1602 24.1923C24.1135 23.847 25.2963 23.1728 26.1202 22.505C27.7423 21.1903 29.0504 19.1319 29.5178 17.1586C29.6565 16.5729 29.7052 16.1335 30.3797 9.37997C30.7423 5.74997 31.0493 2.70345 31.062 2.60997L31.0851 2.43997H20.0002H8.91527L8.93915 2.60997ZM19.4967 4.87037C19.0677 5.02409 18.7229 5.31853 18.5255 5.69997C18.4799 5.78797 18.1375 6.51697 17.7645 7.31997L17.0865 8.77997L15.5133 8.79997L13.9402 8.81997L13.7002 8.93753C13.0595 9.25129 12.6768 9.97505 12.7954 10.6486C12.8851 11.1575 12.943 11.2309 14.3541 12.6225L15.6545 13.9051L15.0034 15.3988C14.6452 16.2203 14.3293 16.9576 14.3012 17.0371C13.9108 18.1436 14.8812 19.3477 16.0615 19.2213C16.3878 19.1864 16.4889 19.1362 18.3975 18.0618C19.9698 17.1767 20.0177 17.153 20.1175 17.2109C20.9592 17.6992 23.4925 19.102 23.603 19.141C24.3787 19.4147 25.2542 19.0484 25.6269 18.2944C25.7524 18.0403 25.7774 17.9449 25.7922 17.6638C25.8044 17.431 25.7903 17.2684 25.7449 17.1163C25.7094 16.9973 25.3868 16.2278 25.028 15.4062L24.3757 13.9125L25.7037 12.5863C27.2497 11.0423 27.2171 11.0897 27.2191 10.3791C27.2201 10.0075 27.2108 9.95917 27.0917 9.71717C26.9257 9.38021 26.6618 9.11533 26.3283 8.95105L26.0621 8.81997L24.5109 8.80821L22.9597 8.79645L22.8646 8.60821C22.8123 8.50469 22.4858 7.80805 22.1391 7.06013C21.7924 6.31221 21.4689 5.63721 21.4202 5.56013C21.2712 5.32441 20.9933 5.08261 20.7207 4.95161C20.4984 4.84469 20.4069 4.82477 20.0807 4.81217C19.7854 4.80077 19.6546 4.81377 19.4967 4.87037ZM19.9688 6.51997C19.7067 7.15225 18.3333 10.0173 18.2359 10.1347C17.9841 10.4387 17.9879 10.4381 16.1419 10.4391L14.5037 10.44L15.9506 11.87C17.2645 13.1685 17.4017 13.3165 17.4429 13.4792C17.4678 13.5778 17.4796 13.7231 17.469 13.8021C17.4584 13.8811 17.1209 14.7005 16.7191 15.6229C16.3172 16.5453 15.9634 17.3594 15.9329 17.4322C15.8776 17.5635 15.8779 17.5641 15.9687 17.516C16.019 17.4895 16.8702 17.0132 17.8602 16.4578C18.8502 15.9023 19.7354 15.4277 19.8274 15.4031C19.9447 15.3717 20.0486 15.3705 20.1755 15.3989C20.2845 15.4234 21.1053 15.861 22.2397 16.4997C23.2755 17.0829 24.1291 17.56 24.1366 17.56C24.1441 17.56 23.7986 16.7545 23.3687 15.77C22.5058 13.7936 22.4732 13.6873 22.6337 13.3726C22.6835 13.275 23.2623 12.6688 24.101 11.8357L25.4861 10.46L23.8331 10.44C21.9927 10.4177 21.9889 10.4171 21.7744 10.136C21.6967 10.034 20.6441 7.82169 20.0826 6.57997C20.0103 6.42013 20.0103 6.42005 19.9688 6.51997ZM19.2002 33.6427C16.3535 33.7797 13.7789 34.7108 12.3554 36.1182C12.1207 36.3502 11.8602 36.648 11.7765 36.78C11.6127 37.0381 11.4002 37.4565 11.4002 37.5206C11.4002 37.5463 14.3863 37.56 20.0002 37.56C25.614 37.56 28.6002 37.5463 28.6002 37.5206C28.6002 37.4561 28.3872 37.0374 28.2235 36.78C28.0242 36.4666 27.3451 35.7964 26.9402 35.5134C25.0445 34.1883 22.1913 33.4987 19.2002 33.6427Z" fill="#0A0A3C"/>
</g>
<defs>
<clipPath id="clip0_588_5183">
<rect width="40" height="40" fill="white"/>
</clipPath>
</defs>
</svg>
