<svg width="16" height="16" viewBox="0 0 16 16" fill="none" xmlns="http://www.w3.org/2000/svg">
<g clip-path="url(#clip0_588_5225)">
<path d="M7.99935 12C10.3926 12 12.3327 10.0599 12.3327 7.66667C12.3327 5.27343 10.3926 3.33333 7.99935 3.33333C5.60611 3.33333 3.66602 5.27343 3.66602 7.66667C3.66602 10.0599 5.60611 12 7.99935 12Z" fill="#CFF5FF"/>
<path d="M8 3.33333C8.29667 3.33333 8.58668 3.24536 8.83336 3.08054C9.08003 2.91572 9.27229 2.68145 9.38582 2.40736C9.49935 2.13327 9.52906 1.83167 9.47118 1.5407C9.4133 1.24973 9.27044 0.982451 9.06066 0.772673C8.85088 0.562894 8.58361 0.420033 8.29264 0.362155C8.00166 0.304277 7.70006 0.333982 7.42598 0.447513C7.15189 0.561045 6.91762 0.753304 6.7528 0.999977C6.58797 1.24665 6.5 1.53666 6.5 1.83333C6.5 2.23116 6.65804 2.61269 6.93934 2.89399C7.22064 3.1753 7.60218 3.33333 8 3.33333Z" fill="#FFD639"/>
<path fill-rule="evenodd" clip-rule="evenodd" d="M7.29776 0.139555C7.63276 0.000794339 8.00138 -0.0355118 8.35701 0.0352278C8.71265 0.105967 9.03932 0.280575 9.29571 0.536972C9.55211 0.793368 9.72672 1.12004 9.79746 1.47567C9.8682 1.8313 9.83189 2.19992 9.69313 2.53492C9.55437 2.86992 9.31939 3.15625 9.01789 3.3577C8.7164 3.55914 8.36195 3.66667 7.99935 3.66667C7.51312 3.66667 7.0468 3.47351 6.70299 3.1297C6.35917 2.78588 6.16602 2.31956 6.16602 1.83333C6.16602 1.47073 6.27354 1.11628 6.47499 0.814789C6.67644 0.513298 6.96277 0.278316 7.29776 0.139555ZM7.99935 3C8.23009 3 8.45566 2.93158 8.64751 2.80338C8.83937 2.67519 8.98891 2.49298 9.07721 2.2798C9.16551 2.06662 9.18861 1.83204 9.1436 1.60573C9.09858 1.37942 8.98747 1.17154 8.82431 1.00838C8.66115 0.845215 8.45327 0.734101 8.22695 0.689085C8.00064 0.644069 7.76607 0.667172 7.55289 0.755475C7.3397 0.843777 7.1575 0.993312 7.0293 1.18517C6.90111 1.37703 6.83268 1.60259 6.83268 1.83333C6.83268 2.14275 6.9556 2.4395 7.17439 2.65829C7.39318 2.87708 7.68993 3 7.99935 3Z" fill="#0A0A3C"/>
<path d="M11 6.33333C10.83 5.6667 10.4428 5.07568 9.89958 4.65357C9.35633 4.23147 8.68796 4.00233 8 4.00233C7.31204 4.00233 6.64367 4.23147 6.10042 4.65357C5.55717 5.07568 5.16999 5.6667 5 6.33333H11Z" fill="#9FEAFF"/>
<path fill-rule="evenodd" clip-rule="evenodd" d="M5.89525 4.39036C6.49699 3.92281 7.23732 3.66899 7.99935 3.66899C8.76138 3.66899 9.50171 3.92281 10.1034 4.39036C10.7052 4.85791 11.1341 5.51257 11.3223 6.25097C11.3478 6.3507 11.3257 6.45658 11.2626 6.53785C11.1994 6.61912 11.1023 6.66667 10.9994 6.66667H4.99935C4.89643 6.66667 4.79928 6.61912 4.73614 6.53785C4.67299 6.45658 4.65092 6.3507 4.67635 6.25097C4.86465 5.51257 5.29352 4.85791 5.89525 4.39036ZM7.99935 4.33566C7.38546 4.33566 6.78905 4.54013 6.30429 4.91679C5.93594 5.203 5.64799 5.57625 5.46439 6H10.5343C10.3507 5.57625 10.0628 5.203 9.69441 4.91679C9.20965 4.54013 8.61324 4.33566 7.99935 4.33566Z" fill="#0A0A3C"/>
<path d="M3.33398 12.6667C3.63066 12.6667 3.92067 12.5787 4.16734 12.4139C4.41401 12.249 4.60627 12.0148 4.7198 11.7407C4.83334 11.4666 4.86304 11.165 4.80516 10.874C4.74728 10.5831 4.60442 10.3158 4.39464 10.106C4.18487 9.89623 3.91759 9.75336 3.62662 9.69549C3.33565 9.63761 3.03405 9.66731 2.75996 9.78085C2.48587 9.89438 2.2516 10.0866 2.08678 10.3333C1.92196 10.58 1.83398 10.87 1.83398 11.1667C1.83398 11.3636 1.87278 11.5587 1.94817 11.7407C2.02355 11.9227 2.13404 12.088 2.27332 12.2273C2.41261 12.3666 2.57797 12.4771 2.75996 12.5525C2.94195 12.6279 3.137 12.6667 3.33398 12.6667Z" fill="#FFD639"/>
<path fill-rule="evenodd" clip-rule="evenodd" d="M2.63175 9.47289C2.96674 9.33413 3.33537 9.29782 3.691 9.36856C4.04663 9.4393 4.3733 9.61391 4.6297 9.8703C4.88609 10.1267 5.0607 10.4534 5.13144 10.809C5.20218 11.1646 5.16587 11.5333 5.02711 11.8683C4.88835 12.2033 4.65337 12.4896 4.35188 12.691C4.05039 12.8925 3.69593 13 3.33333 13C3.09258 13 2.85418 12.9526 2.63175 12.8604C2.40932 12.7683 2.20721 12.6333 2.03697 12.463C1.86673 12.2928 1.73169 12.0907 1.63955 11.8683C1.54742 11.6458 1.5 11.4074 1.5 11.1667C1.5 10.8041 1.60752 10.4496 1.80897 10.1481C2.01042 9.84663 2.29675 9.61165 2.63175 9.47289ZM3.33333 12.3333C3.56408 12.3333 3.78964 12.2649 3.9815 12.1367C4.17336 12.0085 4.32289 11.8263 4.41119 11.6131C4.4995 11.4 4.5226 11.1654 4.47758 10.9391C4.43257 10.7127 4.32145 10.5049 4.15829 10.3417C3.99513 10.1785 3.78725 10.0674 3.56094 10.0224C3.33463 9.9774 3.10005 10.0005 2.88687 10.0888C2.67369 10.1771 2.49148 10.3266 2.36329 10.5185C2.23509 10.7104 2.16667 10.9359 2.16667 11.1667C2.16667 11.3199 2.19684 11.4716 2.25547 11.6131C2.3141 11.7547 2.40004 11.8833 2.50838 11.9916C2.61671 12.1 2.74532 12.1859 2.88687 12.2445C3.02842 12.3032 3.18012 12.3333 3.33333 12.3333Z" fill="#0A0A3C"/>
<path d="M6.33398 15.6667C6.16399 15 5.77681 14.409 5.23356 13.9869C4.69031 13.5648 4.02195 13.3357 3.33398 13.3357C2.64602 13.3357 1.97766 13.5648 1.43441 13.9869C0.891157 14.409 0.503974 15 0.333984 15.6667H6.33398Z" fill="#9FEAFF"/>
<path fill-rule="evenodd" clip-rule="evenodd" d="M1.22924 13.7237C1.83098 13.2561 2.5713 13.0023 3.33334 13.0023C4.09537 13.0023 4.8357 13.2561 5.43743 13.7237C6.03917 14.1912 6.46804 14.8459 6.65633 15.5843C6.68176 15.684 6.6597 15.7899 6.59655 15.8712C6.53341 15.9525 6.43626 16 6.33334 16H0.333336C0.230416 16 0.133268 15.9525 0.07012 15.8712C0.00697249 15.7899 -0.0150917 15.684 0.0103389 15.5843C0.19863 14.8459 0.6275 14.1912 1.22924 13.7237ZM3.33334 13.669C2.71944 13.669 2.12304 13.8735 1.63828 14.2501C1.26992 14.5363 0.981976 14.9096 0.798376 15.3333H5.8683C5.6847 14.9096 5.39675 14.5363 5.02839 14.2501C4.54363 13.8735 3.94723 13.669 3.33334 13.669Z" fill="#0A0A3C"/>
<path d="M12.666 12.6667C12.9627 12.6667 13.2527 12.5787 13.4994 12.4139C13.746 12.249 13.9383 12.0148 14.0518 11.7407C14.1654 11.4666 14.1951 11.165 14.1372 10.874C14.0793 10.5831 13.9365 10.3158 13.7267 10.106C13.5169 9.89623 13.2496 9.75336 12.9587 9.69549C12.6677 9.63761 12.3661 9.66731 12.092 9.78085C11.8179 9.89438 11.5836 10.0866 11.4188 10.3333C11.254 10.58 11.166 10.87 11.166 11.1667C11.166 11.3636 11.2048 11.5587 11.2802 11.7407C11.3556 11.9227 11.4661 12.088 11.6054 12.2273C11.7446 12.3666 11.91 12.4771 12.092 12.5525C12.274 12.6279 12.469 12.6667 12.666 12.6667Z" fill="#FFD639"/>
<path fill-rule="evenodd" clip-rule="evenodd" d="M11.9657 9.47289C12.3007 9.33413 12.6694 9.29782 13.025 9.36856C13.3806 9.4393 13.7073 9.61391 13.9637 9.8703C14.2201 10.1267 14.3947 10.4534 14.4654 10.809C14.5362 11.1646 14.4999 11.5333 14.3611 11.8683C14.2223 12.2033 13.9874 12.4896 13.6859 12.691C13.3844 12.8925 13.0299 13 12.6673 13C12.4266 13 12.1882 12.9526 11.9657 12.8604C11.7433 12.7683 11.5412 12.6333 11.371 12.463C11.2007 12.2928 11.0657 12.0907 10.9735 11.8683C10.8814 11.6458 10.834 11.4074 10.834 11.1667C10.834 10.8041 10.9415 10.4496 11.143 10.1481C11.3444 9.84663 11.6307 9.61165 11.9657 9.47289ZM12.8949 10.0224C12.6686 9.9774 12.434 10.0005 12.2209 10.0888C12.0077 10.1771 11.8255 10.3266 11.6973 10.5185C11.5691 10.7104 11.5007 10.9359 11.5007 11.1667C11.5007 11.3199 11.5308 11.4716 11.5895 11.6131C11.6481 11.7547 11.734 11.8833 11.8424 11.9916C11.9507 12.1 12.0793 12.1859 12.2209 12.2445C12.3624 12.3032 12.5141 12.3333 12.6673 12.3333C12.8981 12.3333 13.1236 12.2649 13.3155 12.1367C13.5073 12.0085 13.6569 11.8263 13.7452 11.6131C13.8335 11.4 13.8566 11.1654 13.8116 10.9391C13.7666 10.7127 13.6554 10.5049 13.4923 10.3417C13.3291 10.1785 13.1212 10.0674 12.8949 10.0224Z" fill="#0A0A3C"/>
<path d="M15.666 15.6667C15.496 15 15.1088 14.409 14.5656 13.9869C14.0223 13.5648 13.354 13.3357 12.666 13.3357C11.9781 13.3357 11.3097 13.5648 10.7664 13.9869C10.2232 14.409 9.83601 15 9.66602 15.6667H15.666Z" fill="#9FEAFF"/>
<path fill-rule="evenodd" clip-rule="evenodd" d="M10.5632 13.7237C11.165 13.2561 11.9053 13.0023 12.6673 13.0023C13.4294 13.0023 14.1697 13.2561 14.7714 13.7237C15.3732 14.1912 15.802 14.8459 15.9903 15.5843C16.0157 15.684 15.9937 15.7899 15.9305 15.8712C15.8674 15.9525 15.7702 16 15.6673 16H9.66732C9.5644 16 9.46725 15.9525 9.4041 15.8712C9.34096 15.7899 9.31889 15.684 9.34432 15.5843C9.53261 14.8459 9.96148 14.1912 10.5632 13.7237ZM12.6673 13.669C12.0534 13.669 11.457 13.8735 10.9723 14.2501C10.6039 14.5363 10.316 14.9096 10.1324 15.3333H15.2023C15.0187 14.9096 14.7307 14.5363 14.3624 14.2501C13.8776 13.8735 13.2812 13.669 12.6673 13.669Z" fill="#0A0A3C"/>
<path fill-rule="evenodd" clip-rule="evenodd" d="M5.69028 12.4874C5.75912 12.3166 5.95334 12.234 6.12408 12.3028C7.32726 12.7879 8.67161 12.7879 9.87479 12.3028C10.0455 12.234 10.2398 12.3166 10.3086 12.4874C10.3774 12.6581 10.2948 12.8523 10.1241 12.9212C8.76096 13.4707 7.23792 13.4707 5.8748 12.9212C5.70406 12.8523 5.62145 12.6581 5.69028 12.4874Z" fill="#0A0A3C"/>
<path fill-rule="evenodd" clip-rule="evenodd" d="M10.7239 3.06963C10.8276 2.9175 11.035 2.87821 11.1871 2.98188C12.0498 3.56975 12.7336 4.38426 13.1632 5.33573C13.5929 6.28721 13.7517 7.33878 13.6221 8.37469C13.5993 8.55736 13.4327 8.68693 13.25 8.66409C13.0674 8.64125 12.9378 8.47465 12.9606 8.29198C13.0749 7.37778 12.9348 6.44977 12.5556 5.61009C12.1765 4.7704 11.573 4.0516 10.8117 3.53279C10.6595 3.42913 10.6203 3.22176 10.7239 3.06963Z" fill="#0A0A3C"/>
<path fill-rule="evenodd" clip-rule="evenodd" d="M5.27604 3.06963C5.37971 3.22176 5.34042 3.42913 5.18829 3.53279C4.42693 4.0516 3.82347 4.7704 3.44432 5.61009C3.06517 6.44977 2.92504 7.37778 3.03934 8.29198C3.06218 8.47465 2.93261 8.64125 2.74994 8.66409C2.56726 8.68693 2.40066 8.55736 2.37782 8.37469C2.2483 7.33878 2.4071 6.28721 2.83672 5.33573C3.26635 4.38426 3.95016 3.56975 4.81288 2.98188C4.96501 2.87821 5.17237 2.9175 5.27604 3.06963Z" fill="#0A0A3C"/>
</g>
<defs>
<clipPath id="clip0_588_5225">
<rect width="16" height="16" fill="white"/>
</clipPath>
</defs>
</svg>
