<svg width="16" height="16" viewBox="0 0 16 16" fill="none" xmlns="http://www.w3.org/2000/svg">
<path d="M13.4309 0.320084L13.465 0.321841C13.6329 0.338929 13.7639 0.480701 13.7639 0.653091C13.7639 0.825482 13.6329 0.967254 13.465 0.984341L13.4309 0.986099H2.56934C2.38543 0.986099 2.23633 0.837002 2.23633 0.653091C2.23633 0.469181 2.38543 0.320084 2.56934 0.320084H13.4309Z" fill="#0A0A3C"/>
<path d="M8.00061 10.8751L9.91736 12.7919H12.1536V12.153C12.1536 11.0515 11.716 9.9952 10.9372 9.21637C10.1584 8.43754 9.10205 8 8.00061 8C6.89918 8 5.84286 8.43754 5.06403 9.21637C4.2852 9.9952 3.84766 11.0515 3.84766 12.153V12.7919H6.08386L8.00061 10.8751Z" fill="#9FEAFF"/>
<path d="M8.00061 8C6.89918 8 5.84286 8.43754 5.06403 9.21637C4.2852 9.9952 3.84766 11.0515 3.84766 12.153V12.7919H6.08386L8.00061 10.8751V8Z" fill="#CFF5FF"/>
<path d="M9.91736 12.7925L8.00061 10.8758L6.08386 12.7925H3.84766V15.3482H12.1536V12.7925H9.91736Z" fill="#FFD639"/>
<path d="M8.00061 10.8758L6.08386 12.7925H3.84766V15.3482H8.00061V10.8758Z" fill="#FFE88E"/>
<path d="M12.1536 3.84704V0.652458H3.84766V3.84704C3.84716 4.77393 4.15838 5.67407 4.73128 6.40271H11.2693C11.8424 5.67413 12.1538 4.774 12.1536 3.84704Z" fill="#9FEAFF"/>
<path d="M8.00062 0.652458H3.84766V3.84704C3.84716 4.77393 4.15838 5.67407 4.73128 6.40271H8.00062V0.652458Z" fill="#CFF5FF"/>
<path d="M11.8205 0.985466H4.18066V3.84718C4.18022 4.67275 4.44867 5.47531 4.94434 6.13371L4.99297 6.19679L5.0127 6.22472C5.10309 6.36727 5.07265 6.558 4.93711 6.66457C4.8016 6.77108 4.60918 6.75567 4.49199 6.63429L4.46953 6.60851L4.41231 6.5341C3.82977 5.76027 3.51413 4.81708 3.51465 3.84679V0.652458L3.51641 0.618474C3.53343 0.450528 3.67522 0.319451 3.84766 0.31945H12.1535L12.1877 0.321208C12.3556 0.338297 12.4865 0.480068 12.4865 0.652458V3.84699L12.4855 3.94074C12.4655 4.90919 12.131 5.84582 11.5311 6.60851C11.4174 6.75306 11.208 6.77807 11.0635 6.66437C10.9189 6.55067 10.8939 6.34134 11.0076 6.19679C11.5345 5.52695 11.8207 4.6994 11.8205 3.84718V0.985466Z" fill="#0A0A3C"/>
<path d="M4.73047 6.40271C5.11796 6.90008 5.61383 7.30247 6.18032 7.57924C6.74681 7.85602 7.36899 7.99989 7.99949 7.99989C8.62998 7.99989 9.25216 7.85602 9.81865 7.57924C10.3851 7.30247 10.881 6.90008 11.2685 6.40271H4.73047Z" fill="#FFD639"/>
<path d="M7.99981 6.40271H4.73047C5.11782 6.90032 5.6137 7.30288 6.18029 7.5797C6.74688 7.85652 7.36921 8.00027 7.99981 8V6.40271Z" fill="#FFE88E"/>
<path d="M11.0281 6.17224C11.1448 6.05027 11.3372 6.03405 11.4732 6.14001C11.6092 6.24598 11.6405 6.43654 11.5508 6.57946L11.5313 6.60739C11.1126 7.14473 10.5769 7.57947 9.96485 7.87849C9.3911 8.1588 8.76447 8.31285 8.12715 8.33103L7.99942 8.33298C7.3183 8.33297 6.64616 8.17748 6.03418 7.87849C5.4604 7.59815 4.9537 7.19843 4.54766 6.70681L4.46778 6.60739L4.44825 6.57946C4.35848 6.43652 4.38978 6.24598 4.52578 6.14001C4.6618 6.03404 4.85425 6.05025 4.9709 6.17224L4.99317 6.19802L5.06114 6.28278C5.40677 6.70126 5.83815 7.04142 6.32656 7.28005C6.8475 7.53456 7.41963 7.66695 7.99942 7.66696L8.10801 7.6654C8.65057 7.64995 9.18403 7.51869 9.67246 7.28005C10.1934 7.02551 10.6495 6.65542 11.0059 6.19802L11.0281 6.17224Z" fill="#0A0A3C"/>
<path d="M11.8205 15.1918V12.1529C11.8205 11.1398 11.4181 10.1681 10.7018 9.45176C10.0078 8.75779 9.07422 8.35847 8.09551 8.33418L8.00059 8.33301C6.98748 8.33302 6.01579 8.73538 5.29941 9.45176C4.58304 10.1681 4.18067 11.1398 4.18066 12.1529V15.1918C4.18066 15.3757 4.03157 15.5248 3.84766 15.5248C3.66375 15.5248 3.51465 15.3757 3.51465 15.1918V12.1529C3.51466 10.9632 3.98724 9.82213 4.82852 8.98086C5.66979 8.13959 6.81085 7.667 8.00059 7.66699L8.11191 7.66836C9.26132 7.69685 10.3576 8.16587 11.1727 8.98086C12.0139 9.82213 12.4865 10.9632 12.4865 12.1529V15.1918C12.4865 15.3757 12.3374 15.5248 12.1535 15.5248C11.9696 15.5248 11.8205 15.3757 11.8205 15.1918Z" fill="#0A0A3C"/>
<path d="M13.4309 15.0152L13.465 15.0169C13.6329 15.034 13.7639 15.1758 13.7639 15.3482C13.7639 15.5206 13.6329 15.6623 13.465 15.6794L13.4309 15.6812H2.56934C2.38543 15.6812 2.23633 15.5321 2.23633 15.3482C2.23633 15.1643 2.38543 15.0152 2.56934 15.0152H13.4309Z" fill="#0A0A3C"/>
</svg>
