<svg width="32" height="32" viewBox="0 0 32 32" fill="none" xmlns="http://www.w3.org/2000/svg">
<path d="M26.8607 0.640182L26.9291 0.643698C27.2649 0.677873 27.5268 0.961416 27.5268 1.3062C27.5268 1.65098 27.2649 1.93452 26.9291 1.9687L26.8607 1.97221H5.1377C4.76987 1.97221 4.47168 1.67402 4.47168 1.3062C4.47168 0.938376 4.76987 0.640182 5.1377 0.640182H26.8607Z" fill="#0A0A3C"/>
<path d="M15.9993 21.7503L19.8328 25.5838H24.3052V24.3059C24.3052 22.1031 23.4301 19.9904 21.8724 18.4327C20.3148 16.8751 18.2021 16 15.9993 16C13.7964 16 11.6838 16.8751 10.1261 18.4327C8.56844 19.9904 7.69336 22.1031 7.69336 24.3059V25.5838H12.1658L15.9993 21.7503Z" fill="#9FEAFF"/>
<path d="M15.9993 16C13.7964 16 11.6838 16.8751 10.1261 18.4327C8.56844 19.9904 7.69336 22.1031 7.69336 24.3059V25.5838H12.1658L15.9993 21.7503V16Z" fill="#CFF5FF"/>
<path d="M19.8328 25.585L15.9993 21.7515L12.1658 25.585H7.69336V30.6964H24.3052V25.585H19.8328Z" fill="#FFD639"/>
<path d="M15.9993 21.7515L12.1658 25.585H7.69336V30.6964H15.9993V21.7515Z" fill="#FFE88E"/>
<path d="M24.3052 7.69408V1.30492H7.69336V7.69408C7.69237 9.54787 8.31481 11.3481 9.4606 12.8054H22.5367C23.6828 11.3483 24.3057 9.548 24.3052 7.69408Z" fill="#9FEAFF"/>
<path d="M15.9993 1.30492H7.69336V7.69408C7.69237 9.54787 8.31481 11.3481 9.4606 12.8054H15.9993V1.30492Z" fill="#CFF5FF"/>
<path d="M23.64 1.97093H8.36035V7.69437C8.35947 9.3455 8.89637 10.9506 9.8877 12.2674L9.98496 12.3936L10.0244 12.4494C10.2052 12.7345 10.1443 13.116 9.87324 13.3291C9.60223 13.5422 9.21739 13.5113 8.98301 13.2686L8.93809 13.217L8.82363 13.0682C7.65856 11.5205 7.02728 9.63416 7.02832 7.69359V1.30492L7.03184 1.23695C7.06589 0.901057 7.34946 0.638901 7.69434 0.638901H24.3061L24.3744 0.642416C24.7102 0.676593 24.9721 0.960136 24.9721 1.30492V7.69398L24.9701 7.88148C24.93 9.81838 24.2609 11.6916 23.0611 13.217C22.8337 13.5061 22.4151 13.5561 22.126 13.3287C21.8369 13.1013 21.7869 12.6827 22.0143 12.3936C23.068 11.0539 23.6405 9.39881 23.64 7.69437V1.97093Z" fill="#0A0A3C"/>
<path d="M9.46191 12.8054C10.2369 13.8002 11.2286 14.6049 12.3616 15.1585C13.4946 15.712 14.739 15.9998 15.9999 15.9998C17.2609 15.9998 18.5053 15.712 19.6383 15.1585C20.7713 14.6049 21.763 13.8002 22.538 12.8054H9.46191Z" fill="#FFD639"/>
<path d="M16.0006 12.8054H9.46191C10.2366 13.8006 11.2284 14.6058 12.3616 15.1594C13.4947 15.713 14.7394 16.0005 16.0006 16V12.8054Z" fill="#FFE88E"/>
<path d="M22.0563 12.3445C22.2896 12.1006 22.6745 12.0681 22.9465 12.28C23.2184 12.492 23.281 12.8731 23.1016 13.1589L23.0625 13.2148C22.2253 14.2895 21.1537 15.1589 19.9297 15.757C18.7822 16.3176 17.5289 16.6257 16.2543 16.6621L15.9988 16.666C14.6366 16.6659 13.2923 16.355 12.0684 15.757C10.9208 15.1963 9.9074 14.3969 9.09532 13.4136L8.93555 13.2148L8.89649 13.1589C8.71696 12.8731 8.77956 12.492 9.05157 12.28C9.32359 12.0681 9.7085 12.1005 9.9418 12.3445L9.98633 12.396L10.1223 12.5656C10.8135 13.4025 11.6763 14.0829 12.6531 14.5601C13.695 15.0691 14.8393 15.3339 15.9988 15.3339L16.216 15.3308C17.3011 15.2999 18.3681 15.0374 19.3449 14.5601C20.3869 14.051 21.299 13.3108 22.0117 12.396L22.0563 12.3445Z" fill="#0A0A3C"/>
<path d="M23.64 30.3836V24.3059C23.64 22.2796 22.8353 20.3363 21.4025 18.9035C20.0146 17.5156 18.1475 16.7169 16.19 16.6684L16.0002 16.666C13.974 16.666 12.0306 17.4708 10.5979 18.9035C9.1651 20.3363 8.36037 22.2796 8.36035 24.3059V30.3836C8.36035 30.7514 8.06216 31.0496 7.69434 31.0496C7.32651 31.0496 7.02832 30.7514 7.02832 30.3836V24.3059C7.02834 21.9264 7.97351 19.6443 9.65605 17.9617C11.3386 16.2792 13.6207 15.334 16.0002 15.334L16.2229 15.3367C18.5217 15.3937 20.7143 16.3317 22.3443 17.9617C24.0269 19.6443 24.9721 21.9264 24.9721 24.3059V30.3836C24.9721 30.7514 24.6739 31.0496 24.3061 31.0496C23.9383 31.0495 23.64 30.7514 23.64 30.3836Z" fill="#0A0A3C"/>
<path d="M26.8607 30.0303L26.9291 30.0339C27.2649 30.068 27.5268 30.3516 27.5268 30.6964C27.5268 31.0411 27.2649 31.3247 26.9291 31.3589L26.8607 31.3624H5.1377C4.76987 31.3624 4.47168 31.0642 4.47168 30.6964C4.47168 30.3285 4.76987 30.0303 5.1377 30.0303H26.8607Z" fill="#0A0A3C"/>
</svg>
