<svg width="16" height="16" viewBox="0 0 16 16" fill="none" xmlns="http://www.w3.org/2000/svg">
<g clip-path="url(#clip0_588_2636)">
<path d="M13.2002 7.6C13.2002 7.15818 13.5584 6.8 14.0002 6.8H14.8002C15.242 6.8 15.6002 7.15818 15.6002 7.6V8.4C15.6002 8.84183 15.242 9.2 14.8002 9.2H14.0002C13.5584 9.2 13.2002 8.84183 13.2002 8.4V7.6Z" fill="#FFD639"/>
<path d="M13.2002 7.6C13.2002 7.15818 13.5584 6.8 14.0002 6.8H14.8002C15.242 6.8 15.6002 7.15818 15.6002 7.6V8H13.2002V7.6Z" fill="#FFE88E"/>
<path d="M0.400391 1.2C0.400391 0.758174 0.758563 0.400002 1.20039 0.400002H2.00039C2.44222 0.400002 2.80039 0.758174 2.80039 1.2V2C2.80039 2.44183 2.44222 2.8 2.00039 2.8H1.20039C0.758563 2.8 0.400391 2.44183 0.400391 2V1.2Z" fill="#9FEAFF"/>
<path d="M0.400391 5.2C0.400391 4.75817 0.758563 4.4 1.20039 4.4H2.00039C2.44222 4.4 2.80039 4.75817 2.80039 5.2V6C2.80039 6.44183 2.44222 6.8 2.00039 6.8H1.20039C0.758563 6.8 0.400391 6.44183 0.400391 6V5.2Z" fill="#9FEAFF"/>
<path d="M7 3.2C7 2.75817 7.35817 2.4 7.8 2.4H8.6C9.04183 2.4 9.4 2.75817 9.4 3.2V4C9.4 4.44183 9.04183 4.8 8.6 4.8H7.8C7.35817 4.8 7 4.44183 7 4V3.2Z" fill="#9FEAFF"/>
<path d="M7 11.8C7 11.3582 7.35817 11 7.8 11H8.6C9.04183 11 9.4 11.3582 9.4 11.8V12.6C9.4 13.0418 9.04183 13.4 8.6 13.4H7.8C7.35817 13.4 7 13.0418 7 12.6V11.8Z" fill="#9FEAFF"/>
<path d="M0.400391 9.8C0.400391 9.35817 0.758563 9 1.20039 9H2.00039C2.44222 9 2.80039 9.35817 2.80039 9.8V10.6C2.80039 11.0418 2.44222 11.4 2.00039 11.4H1.20039C0.758563 11.4 0.400391 11.0418 0.400391 10.6V9.8Z" fill="#9FEAFF"/>
<path d="M0.400391 13.8C0.400391 13.3582 0.758563 13 1.20039 13H2.00039C2.44222 13 2.80039 13.3582 2.80039 13.8V14.6C2.80039 15.0418 2.44222 15.4 2.00039 15.4H1.20039C0.758563 15.4 0.400391 15.0418 0.400391 14.6V13.8Z" fill="#9FEAFF"/>
<path d="M0.400391 1.2C0.400391 0.758174 0.758563 0.400002 1.20039 0.400002H2.00039C2.44222 0.400002 2.80039 0.758174 2.80039 1.2V1.6H0.400391V1.2Z" fill="#CFF5FF"/>
<path d="M0.400391 5.2C0.400391 4.75817 0.758563 4.4 1.20039 4.4H2.00039C2.44222 4.4 2.80039 4.75817 2.80039 5.2V5.6H0.400391V5.2Z" fill="#CFF5FF"/>
<path d="M7 3.2C7 2.75817 7.35817 2.4 7.8 2.4H8.6C9.04183 2.4 9.4 2.75817 9.4 3.2V3.6H7V3.2Z" fill="#CFF5FF"/>
<path d="M7 11.8C7 11.3582 7.35817 11 7.8 11H8.6C9.04183 11 9.4 11.3582 9.4 11.8V12.2H7V11.8Z" fill="#CFF5FF"/>
<path d="M0.400391 9.8C0.400391 9.35817 0.758563 9 1.20039 9H2.00039C2.44222 9 2.80039 9.35817 2.80039 9.8V10.2H0.400391V9.8Z" fill="#CFF5FF"/>
<path d="M0.400391 13.8C0.400391 13.3582 0.758563 13 1.20039 13H2.00039C2.44222 13 2.80039 13.3582 2.80039 13.8V14.2H0.400391V13.8Z" fill="#CFF5FF"/>
<path fill-rule="evenodd" clip-rule="evenodd" d="M0.0664062 1.2C0.0664062 0.574076 0.573817 0.0666656 1.19974 0.0666656H1.99974C2.62566 0.0666656 3.13307 0.574076 3.13307 1.2V2C3.13307 2.62592 2.62566 3.13333 1.99974 3.13333H1.19974C0.573817 3.13333 0.0664062 2.62592 0.0664062 2V1.2ZM1.19974 0.733332C0.942007 0.733332 0.733073 0.942266 0.733073 1.2V2C0.733073 2.25773 0.942007 2.46667 1.19974 2.46667H1.99974C2.25747 2.46667 2.46641 2.25773 2.46641 2V1.2C2.46641 0.942266 2.25747 0.733332 1.99974 0.733332H1.19974Z" fill="#0A0A3C"/>
<path fill-rule="evenodd" clip-rule="evenodd" d="M12.8672 7.6C12.8672 6.97408 13.3746 6.46667 14.0005 6.46667H14.8005C15.4264 6.46667 15.9339 6.97408 15.9339 7.6V8.4C15.9339 9.02592 15.4264 9.53333 14.8005 9.53333H14.0005C13.3746 9.53333 12.8672 9.02592 12.8672 8.4V7.6ZM14.0005 7.13333C13.7428 7.13333 13.5339 7.34227 13.5339 7.6V8.4C13.5339 8.65773 13.7428 8.86667 14.0005 8.86667H14.8005C15.0583 8.86667 15.2672 8.65773 15.2672 8.4V7.6C15.2672 7.34227 15.0583 7.13333 14.8005 7.13333H14.0005Z" fill="#0A0A3C"/>
<path fill-rule="evenodd" clip-rule="evenodd" d="M0.0664062 5.2C0.0664062 4.57408 0.573817 4.06667 1.19974 4.06667H1.99974C2.62566 4.06667 3.13307 4.57408 3.13307 5.2V6C3.13307 6.62592 2.62566 7.13333 1.99974 7.13333H1.19974C0.573817 7.13333 0.0664062 6.62592 0.0664062 6V5.2ZM1.19974 4.73333C0.942007 4.73333 0.733073 4.94227 0.733073 5.2V6C0.733073 6.25773 0.942007 6.46667 1.19974 6.46667H1.99974C2.25747 6.46667 2.46641 6.25773 2.46641 6V5.2C2.46641 4.94227 2.25747 4.73333 1.99974 4.73333H1.19974Z" fill="#0A0A3C"/>
<path fill-rule="evenodd" clip-rule="evenodd" d="M6.66602 3.2C6.66602 2.57408 7.17343 2.06667 7.79935 2.06667H8.59935C9.22527 2.06667 9.73268 2.57408 9.73268 3.2V4C9.73268 4.62592 9.22527 5.13333 8.59935 5.13333H7.79935C7.17343 5.13333 6.66602 4.62592 6.66602 4V3.2ZM7.79935 2.73333C7.54162 2.73333 7.33268 2.94227 7.33268 3.2V4C7.33268 4.25773 7.54162 4.46667 7.79935 4.46667H8.59935C8.85708 4.46667 9.06602 4.25773 9.06602 4V3.2C9.06602 2.94227 8.85708 2.73333 8.59935 2.73333H7.79935Z" fill="#0A0A3C"/>
<path fill-rule="evenodd" clip-rule="evenodd" d="M6.66602 11.8C6.66602 11.1741 7.17343 10.6667 7.79935 10.6667H8.59935C9.22527 10.6667 9.73268 11.1741 9.73268 11.8V12.6C9.73268 13.2259 9.22527 13.7333 8.59935 13.7333H7.79935C7.17343 13.7333 6.66602 13.2259 6.66602 12.6V11.8ZM7.79935 11.3333C7.54162 11.3333 7.33268 11.5423 7.33268 11.8V12.6C7.33268 12.8577 7.54162 13.0667 7.79935 13.0667H8.59935C8.85708 13.0667 9.06602 12.8577 9.06602 12.6V11.8C9.06602 11.5423 8.85708 11.3333 8.59935 11.3333H7.79935Z" fill="#0A0A3C"/>
<path fill-rule="evenodd" clip-rule="evenodd" d="M0.0664062 9.8C0.0664062 9.17408 0.573817 8.66667 1.19974 8.66667H1.99974C2.62566 8.66667 3.13307 9.17408 3.13307 9.8V10.6C3.13307 11.2259 2.62566 11.7333 1.99974 11.7333H1.19974C0.573817 11.7333 0.0664062 11.2259 0.0664062 10.6V9.8ZM1.19974 9.33334C0.942007 9.33334 0.733073 9.54227 0.733073 9.8V10.6C0.733073 10.8577 0.942007 11.0667 1.19974 11.0667H1.99974C2.25747 11.0667 2.46641 10.8577 2.46641 10.6V9.8C2.46641 9.54227 2.25747 9.33334 1.99974 9.33334H1.19974Z" fill="#0A0A3C"/>
<path fill-rule="evenodd" clip-rule="evenodd" d="M0.0664062 13.8C0.0664062 13.1741 0.573817 12.6667 1.19974 12.6667H1.99974C2.62566 12.6667 3.13307 13.1741 3.13307 13.8V14.6C3.13307 15.2259 2.62566 15.7333 1.99974 15.7333H1.19974C0.573817 15.7333 0.0664062 15.2259 0.0664062 14.6V13.8ZM1.19974 13.3333C0.942007 13.3333 0.733073 13.5423 0.733073 13.8V14.6C0.733073 14.8577 0.942007 15.0667 1.19974 15.0667H1.99974C2.25747 15.0667 2.46641 14.8577 2.46641 14.6V13.8C2.46641 13.5423 2.25747 13.3333 1.99974 13.3333H1.19974Z" fill="#0A0A3C"/>
<path fill-rule="evenodd" clip-rule="evenodd" d="M2.4668 1.6C2.4668 1.41591 2.61604 1.26667 2.80013 1.26667H4.00013C4.62605 1.26667 5.13346 1.77408 5.13346 2.4V4.8C5.13346 5.42593 4.62605 5.93334 4.00013 5.93334H2.80013C2.61604 5.93334 2.4668 5.7841 2.4668 5.6C2.4668 5.41591 2.61604 5.26667 2.80013 5.26667H4.00013C4.25786 5.26667 4.4668 5.05774 4.4668 4.8V2.4C4.4668 2.14227 4.25786 1.93334 4.00013 1.93334H2.80013C2.61604 1.93334 2.4668 1.7841 2.4668 1.6Z" fill="#0A0A3C"/>
<path fill-rule="evenodd" clip-rule="evenodd" d="M9.06641 3.6C9.06641 3.4159 9.21564 3.26666 9.39974 3.26666H10.5997C11.2257 3.26666 11.7331 3.77407 11.7331 4.4V11.4C11.7331 12.0259 11.2257 12.5333 10.5997 12.5333H9.39974C9.21564 12.5333 9.06641 12.3841 9.06641 12.2C9.06641 12.0159 9.21564 11.8667 9.39974 11.8667H10.5997C10.8575 11.8667 11.0664 11.6577 11.0664 11.4V4.4C11.0664 4.14226 10.8575 3.93333 10.5997 3.93333H9.39974C9.21564 3.93333 9.06641 3.78409 9.06641 3.6Z" fill="#0A0A3C"/>
<path fill-rule="evenodd" clip-rule="evenodd" d="M2.4668 10.2C2.4668 10.0159 2.61604 9.86667 2.80013 9.86667H4.00013C4.62605 9.86667 5.13346 10.3741 5.13346 11V13.4C5.13346 14.0259 4.62605 14.5333 4.00013 14.5333H2.80013C2.61604 14.5333 2.4668 14.3841 2.4668 14.2C2.4668 14.0159 2.61604 13.8667 2.80013 13.8667H4.00013C4.25786 13.8667 4.4668 13.6577 4.4668 13.4V11C4.4668 10.7423 4.25786 10.5333 4.00013 10.5333H2.80013C2.61604 10.5333 2.4668 10.3841 2.4668 10.2Z" fill="#0A0A3C"/>
<path fill-rule="evenodd" clip-rule="evenodd" d="M7.2002 3.63333C7.2002 3.81743 7.05096 3.96667 6.86686 3.96667L5.13353 3.96667C4.94943 3.96667 4.8002 3.81743 4.8002 3.63333C4.8002 3.44924 4.94943 3.3 5.13353 3.3L6.86686 3.3C7.05096 3.3 7.2002 3.44924 7.2002 3.63333Z" fill="#0A0A3C"/>
<path fill-rule="evenodd" clip-rule="evenodd" d="M13.2002 8.03334C13.2002 8.21743 13.051 8.36667 12.8669 8.36667H11.5335C11.3494 8.36667 11.2002 8.21743 11.2002 8.03334C11.2002 7.84924 11.3494 7.7 11.5335 7.7H12.8669C13.051 7.7 13.2002 7.84924 13.2002 8.03334Z" fill="#0A0A3C"/>
<path fill-rule="evenodd" clip-rule="evenodd" d="M7.2002 12.1333C7.2002 12.3174 7.05096 12.4667 6.86686 12.4667L5.13353 12.4667C4.94943 12.4667 4.8002 12.3174 4.8002 12.1333C4.8002 11.9492 4.94943 11.8 5.13353 11.8L6.86686 11.8C7.05096 11.8 7.2002 11.9492 7.2002 12.1333Z" fill="#0A0A3C"/>
</g>
<defs>
<clipPath id="clip0_588_2636">
<rect width="16" height="16" fill="white"/>
</clipPath>
</defs>
</svg>
