<svg width="32" height="32" viewBox="0 0 32 32" fill="none" xmlns="http://www.w3.org/2000/svg">
<g clip-path="url(#clip0_588_2636)">
<path d="M26.4004 15.2C26.4004 14.3163 27.1167 13.6 28.0004 13.6H29.6004C30.484 13.6 31.2004 14.3163 31.2004 15.2V16.8C31.2004 17.6837 30.484 18.4 29.6004 18.4H28.0004C27.1167 18.4 26.4004 17.6837 26.4004 16.8V15.2Z" fill="#FFD639"/>
<path d="M26.4004 15.2C26.4004 14.3163 27.1167 13.6 28.0004 13.6H29.6004C30.484 13.6 31.2004 14.3163 31.2004 15.2V16H26.4004V15.2Z" fill="#FFE88E"/>
<path d="M0.799805 2.4C0.799805 1.51634 1.51615 0.799999 2.3998 0.799999H3.9998C4.88346 0.799999 5.5998 1.51634 5.5998 2.4V4C5.5998 4.88365 4.88346 5.6 3.9998 5.6H2.3998C1.51615 5.6 0.799805 4.88365 0.799805 4V2.4Z" fill="#9FEAFF"/>
<path d="M0.799805 10.4C0.799805 9.51634 1.51615 8.8 2.3998 8.8H3.9998C4.88346 8.8 5.5998 9.51634 5.5998 10.4V12C5.5998 12.8837 4.88346 13.6 3.9998 13.6H2.3998C1.51615 13.6 0.799805 12.8837 0.799805 12V10.4Z" fill="#9FEAFF"/>
<path d="M14 6.4C14 5.51634 14.7163 4.8 15.6 4.8H17.2C18.0837 4.8 18.8 5.51634 18.8 6.4V8C18.8 8.88365 18.0837 9.6 17.2 9.6H15.6C14.7163 9.6 14 8.88365 14 8V6.4Z" fill="#9FEAFF"/>
<path d="M14 23.6C14 22.7163 14.7163 22 15.6 22H17.2C18.0837 22 18.8 22.7163 18.8 23.6V25.2C18.8 26.0837 18.0837 26.8 17.2 26.8H15.6C14.7163 26.8 14 26.0837 14 25.2V23.6Z" fill="#9FEAFF"/>
<path d="M0.799805 19.6C0.799805 18.7163 1.51615 18 2.3998 18H3.9998C4.88346 18 5.5998 18.7163 5.5998 19.6V21.2C5.5998 22.0837 4.88346 22.8 3.9998 22.8H2.3998C1.51615 22.8 0.799805 22.0837 0.799805 21.2V19.6Z" fill="#9FEAFF"/>
<path d="M0.799805 27.6C0.799805 26.7163 1.51615 26 2.3998 26H3.9998C4.88346 26 5.5998 26.7163 5.5998 27.6V29.2C5.5998 30.0837 4.88346 30.8 3.9998 30.8H2.3998C1.51615 30.8 0.799805 30.0837 0.799805 29.2V27.6Z" fill="#9FEAFF"/>
<path d="M0.799805 2.4C0.799805 1.51634 1.51615 0.799999 2.3998 0.799999H3.9998C4.88346 0.799999 5.5998 1.51634 5.5998 2.4V3.2H0.799805V2.4Z" fill="#CFF5FF"/>
<path d="M0.799805 10.4C0.799805 9.51634 1.51615 8.8 2.3998 8.8H3.9998C4.88346 8.8 5.5998 9.51634 5.5998 10.4V11.2H0.799805V10.4Z" fill="#CFF5FF"/>
<path d="M14 6.4C14 5.51634 14.7163 4.8 15.6 4.8H17.2C18.0837 4.8 18.8 5.51634 18.8 6.4V7.2H14V6.4Z" fill="#CFF5FF"/>
<path d="M14 23.6C14 22.7163 14.7163 22 15.6 22H17.2C18.0837 22 18.8 22.7163 18.8 23.6V24.4H14V23.6Z" fill="#CFF5FF"/>
<path d="M0.799805 19.6C0.799805 18.7163 1.51615 18 2.3998 18H3.9998C4.88346 18 5.5998 18.7163 5.5998 19.6V20.4H0.799805V19.6Z" fill="#CFF5FF"/>
<path d="M0.799805 27.6C0.799805 26.7163 1.51615 26 2.3998 26H3.9998C4.88346 26 5.5998 26.7163 5.5998 27.6V28.4H0.799805V27.6Z" fill="#CFF5FF"/>
<path fill-rule="evenodd" clip-rule="evenodd" d="M0.132812 2.4C0.132812 1.14815 1.14763 0.133331 2.39948 0.133331H3.99948C5.25132 0.133331 6.26615 1.14815 6.26615 2.4V4C6.26615 5.25184 5.25132 6.26666 3.99948 6.26666H2.39948C1.14763 6.26666 0.132812 5.25184 0.132812 4V2.4ZM2.39948 1.46666C1.88401 1.46666 1.46615 1.88453 1.46615 2.4V4C1.46615 4.51546 1.88401 4.93333 2.39948 4.93333H3.99948C4.51495 4.93333 4.93281 4.51546 4.93281 4V2.4C4.93281 1.88453 4.51495 1.46666 3.99948 1.46666H2.39948Z" fill="#0A0A3C"/>
<path fill-rule="evenodd" clip-rule="evenodd" d="M25.7334 15.2C25.7334 13.9482 26.7482 12.9333 28.0001 12.9333H29.6001C30.8519 12.9333 31.8667 13.9482 31.8667 15.2V16.8C31.8667 18.0518 30.8519 19.0667 29.6001 19.0667H28.0001C26.7482 19.0667 25.7334 18.0518 25.7334 16.8V15.2ZM28.0001 14.2667C27.4846 14.2667 27.0667 14.6845 27.0667 15.2V16.8C27.0667 17.3155 27.4846 17.7333 28.0001 17.7333H29.6001C30.1155 17.7333 30.5334 17.3155 30.5334 16.8V15.2C30.5334 14.6845 30.1155 14.2667 29.6001 14.2667H28.0001Z" fill="#0A0A3C"/>
<path fill-rule="evenodd" clip-rule="evenodd" d="M0.132812 10.4C0.132812 9.14816 1.14763 8.13334 2.39948 8.13334H3.99948C5.25132 8.13334 6.26615 9.14816 6.26615 10.4V12C6.26615 13.2518 5.25132 14.2667 3.99948 14.2667H2.39948C1.14763 14.2667 0.132812 13.2518 0.132812 12V10.4ZM2.39948 9.46667C1.88401 9.46667 1.46615 9.88454 1.46615 10.4V12C1.46615 12.5155 1.88401 12.9333 2.39948 12.9333H3.99948C4.51495 12.9333 4.93281 12.5155 4.93281 12V10.4C4.93281 9.88454 4.51495 9.46667 3.99948 9.46667H2.39948Z" fill="#0A0A3C"/>
<path fill-rule="evenodd" clip-rule="evenodd" d="M13.333 6.4C13.333 5.14816 14.3478 4.13334 15.5997 4.13334H17.1997C18.4515 4.13334 19.4663 5.14816 19.4663 6.4V8C19.4663 9.25185 18.4515 10.2667 17.1997 10.2667H15.5997C14.3478 10.2667 13.333 9.25185 13.333 8V6.4ZM15.5997 5.46667C15.0842 5.46667 14.6663 5.88454 14.6663 6.4V8C14.6663 8.51547 15.0842 8.93334 15.5997 8.93334H17.1997C17.7151 8.93334 18.133 8.51547 18.133 8V6.4C18.133 5.88454 17.7151 5.46667 17.1997 5.46667H15.5997Z" fill="#0A0A3C"/>
<path fill-rule="evenodd" clip-rule="evenodd" d="M13.333 23.6C13.333 22.3482 14.3478 21.3333 15.5997 21.3333H17.1997C18.4515 21.3333 19.4663 22.3482 19.4663 23.6V25.2C19.4663 26.4518 18.4515 27.4667 17.1997 27.4667H15.5997C14.3478 27.4667 13.333 26.4518 13.333 25.2V23.6ZM15.5997 22.6667C15.0842 22.6667 14.6663 23.0845 14.6663 23.6V25.2C14.6663 25.7155 15.0842 26.1333 15.5997 26.1333H17.1997C17.7151 26.1333 18.133 25.7155 18.133 25.2V23.6C18.133 23.0845 17.7151 22.6667 17.1997 22.6667H15.5997Z" fill="#0A0A3C"/>
<path fill-rule="evenodd" clip-rule="evenodd" d="M0.132812 19.6C0.132812 18.3481 1.14763 17.3333 2.39948 17.3333H3.99948C5.25132 17.3333 6.26615 18.3481 6.26615 19.6V21.2C6.26615 22.4518 5.25132 23.4667 3.99948 23.4667H2.39948C1.14763 23.4667 0.132812 22.4518 0.132812 21.2V19.6ZM2.39948 18.6667C1.88401 18.6667 1.46615 19.0845 1.46615 19.6V21.2C1.46615 21.7155 1.88401 22.1333 2.39948 22.1333H3.99948C4.51495 22.1333 4.93281 21.7155 4.93281 21.2V19.6C4.93281 19.0845 4.51495 18.6667 3.99948 18.6667H2.39948Z" fill="#0A0A3C"/>
<path fill-rule="evenodd" clip-rule="evenodd" d="M0.132812 27.6C0.132812 26.3481 1.14763 25.3333 2.39948 25.3333H3.99948C5.25132 25.3333 6.26615 26.3481 6.26615 27.6V29.2C6.26615 30.4518 5.25132 31.4667 3.99948 31.4667H2.39948C1.14763 31.4667 0.132812 30.4518 0.132812 29.2V27.6ZM2.39948 26.6667C1.88401 26.6667 1.46615 27.0845 1.46615 27.6V29.2C1.46615 29.7155 1.88401 30.1333 2.39948 30.1333H3.99948C4.51495 30.1333 4.93281 29.7155 4.93281 29.2V27.6C4.93281 27.0845 4.51495 26.6667 3.99948 26.6667H2.39948Z" fill="#0A0A3C"/>
<path fill-rule="evenodd" clip-rule="evenodd" d="M4.93359 3.2C4.93359 2.83181 5.23207 2.53333 5.60026 2.53333H8.00026C9.25211 2.53333 10.2669 3.54815 10.2669 4.8V9.6C10.2669 10.8518 9.25211 11.8667 8.00026 11.8667H5.60026C5.23207 11.8667 4.93359 11.5682 4.93359 11.2C4.93359 10.8318 5.23207 10.5333 5.60026 10.5333H8.00026C8.51573 10.5333 8.93359 10.1155 8.93359 9.6V4.8C8.93359 4.28453 8.51573 3.86667 8.00026 3.86667H5.60026C5.23207 3.86667 4.93359 3.56819 4.93359 3.2Z" fill="#0A0A3C"/>
<path fill-rule="evenodd" clip-rule="evenodd" d="M18.1328 7.2C18.1328 6.83181 18.4313 6.53333 18.7995 6.53333H21.1995C22.4513 6.53333 23.4661 7.54815 23.4661 8.8V22.8C23.4661 24.0518 22.4513 25.0667 21.1995 25.0667H18.7995C18.4313 25.0667 18.1328 24.7682 18.1328 24.4C18.1328 24.0318 18.4313 23.7333 18.7995 23.7333H21.1995C21.7149 23.7333 22.1328 23.3155 22.1328 22.8V8.8C22.1328 8.28453 21.7149 7.86667 21.1995 7.86667H18.7995C18.4313 7.86667 18.1328 7.56819 18.1328 7.2Z" fill="#0A0A3C"/>
<path fill-rule="evenodd" clip-rule="evenodd" d="M4.93359 20.4C4.93359 20.0318 5.23207 19.7333 5.60026 19.7333H8.00026C9.25211 19.7333 10.2669 20.7482 10.2669 22V26.8C10.2669 28.0518 9.25211 29.0667 8.00026 29.0667H5.60026C5.23207 29.0667 4.93359 28.7682 4.93359 28.4C4.93359 28.0318 5.23207 27.7333 5.60026 27.7333H8.00026C8.51573 27.7333 8.93359 27.3155 8.93359 26.8V22C8.93359 21.4845 8.51573 21.0667 8.00026 21.0667H5.60026C5.23207 21.0667 4.93359 20.7682 4.93359 20.4Z" fill="#0A0A3C"/>
<path fill-rule="evenodd" clip-rule="evenodd" d="M14.4004 7.26667C14.4004 7.63486 14.1019 7.93333 13.7337 7.93333L10.2671 7.93333C9.89887 7.93333 9.60039 7.63486 9.60039 7.26667C9.60039 6.89848 9.89887 6.6 10.2671 6.6L13.7337 6.6C14.1019 6.6 14.4004 6.89848 14.4004 7.26667Z" fill="#0A0A3C"/>
<path fill-rule="evenodd" clip-rule="evenodd" d="M26.4004 16.0667C26.4004 16.4349 26.1019 16.7333 25.7337 16.7333H23.0671C22.6989 16.7333 22.4004 16.4349 22.4004 16.0667C22.4004 15.6985 22.6989 15.4 23.0671 15.4H25.7337C26.1019 15.4 26.4004 15.6985 26.4004 16.0667Z" fill="#0A0A3C"/>
<path fill-rule="evenodd" clip-rule="evenodd" d="M14.4004 24.2667C14.4004 24.6349 14.1019 24.9333 13.7337 24.9333L10.2671 24.9333C9.89887 24.9333 9.60039 24.6349 9.60039 24.2667C9.60039 23.8985 9.89887 23.6 10.2671 23.6L13.7337 23.6C14.1019 23.6 14.4004 23.8985 14.4004 24.2667Z" fill="#0A0A3C"/>
</g>
<defs>
<clipPath id="clip0_588_2636">
<rect width="32" height="32" fill="white"/>
</clipPath>
</defs>
</svg>
