<svg width="40" height="40" viewBox="0 0 40 40" fill="none" xmlns="http://www.w3.org/2000/svg">
<g clip-path="url(#clip0_588_5243)">
<path d="M16.4204 10.7768C13.246 8.95682 9.857 9.0379 8.68177 11.0735L4.03535 19.1213C3.51523 20.0222 3.31614 21.2685 4.22937 22.8769C5.14261 24.4852 5.98525 26.4931 5.55181 27.2439L2.29239 32.8894C2.1459 33.1431 1.90828 33.4324 1.65612 33.7394C1.37108 34.0865 1.06746 34.4562 0.855876 34.8227C0.633188 35.2084 1.03639 35.5255 1.85706 36.0013C1.86208 36.0042 1.86707 36.0071 1.87206 36.0099C1.87705 36.0128 1.88205 36.0157 1.88707 36.0186C2.70942 36.4915 3.18567 36.6821 3.40836 36.2964C3.61994 35.9299 3.7883 35.4821 3.94635 35.0617C4.08616 34.6898 4.21792 34.3394 4.3644 34.0856L7.62383 28.4401C8.05726 27.6894 10.2175 27.4152 12.067 27.4019C13.9164 27.3886 14.8963 26.593 15.4164 25.6922L20.0628 17.6443C21.2381 15.6088 19.6138 12.6333 16.4504 10.7941C16.4454 10.7912 16.4405 10.7883 16.4354 10.7854C16.4304 10.7825 16.4254 10.7797 16.4204 10.7768Z" fill="#FFD639"/>
<path d="M16.4502 10.7942L16.4352 10.7855L16.4202 10.7768C13.2457 8.95683 9.85673 9.03793 8.6815 11.0735L4.03508 19.1213C3.51496 20.0222 3.31587 21.2686 4.22911 22.8769C5.14234 24.4852 5.98498 26.4932 5.55155 27.2439L2.29212 32.8894C2.14563 33.1431 1.90802 33.4324 1.65585 33.7395C1.37082 34.0865 1.0672 34.4562 0.855609 34.8227C0.632932 35.2084 1.03613 35.5255 1.85679 36.0013L1.87181 36.01L1.8868 36.0187L16.4502 10.7942Z" fill="#FFE88E"/>
<path fill-rule="evenodd" clip-rule="evenodd" d="M16.849 10.0716L16.8468 10.0703L16.8377 10.0651L16.8329 10.0623L16.8307 10.0611C15.138 9.09062 13.3467 8.60137 11.7734 8.65478C10.203 8.70809 8.74297 9.31742 7.96728 10.661L3.32086 18.7088C2.6528 19.8659 2.45583 21.4243 3.51194 23.2842C3.95372 24.0622 4.36632 24.9168 4.6144 25.6473C4.73897 26.014 4.81198 26.3205 4.83565 26.5541C4.85696 26.7645 4.83052 26.8403 4.83189 26.8408L1.5779 32.4769C1.47287 32.6588 1.28627 32.8899 1.01856 33.2158L0.998445 33.2403C0.727114 33.5706 0.387222 33.9844 0.141388 34.4102C0.000331771 34.6545 -0.0719252 34.9528 -0.00424636 35.2732C0.0579218 35.5675 0.219556 35.7893 0.363759 35.9429C0.634845 36.2316 1.04692 36.4852 1.44327 36.715L1.47455 36.7331L1.47582 36.7338C1.873 36.9622 2.29866 37.1923 2.68425 37.2827C2.88937 37.3307 3.16233 37.3598 3.44828 37.2665C3.75958 37.1649 3.98176 36.9532 4.12281 36.7089C4.36865 36.283 4.55703 35.7818 4.70742 35.3817L4.71856 35.352C4.86699 34.9572 4.97383 34.68 5.07886 34.4981L8.33284 28.8621C8.33396 28.863 8.38636 28.8022 8.57921 28.7155C8.79334 28.6192 9.09529 28.5292 9.47522 28.4537C10.2318 28.3033 11.1782 28.2333 12.0729 28.2269C14.2117 28.2115 15.4628 27.2618 16.1309 26.1047L18.9647 21.1963C19.1925 20.8017 19.0573 20.2972 18.6627 20.0694C18.2681 19.8415 17.7636 19.9767 17.5358 20.3713L14.7019 25.2797C14.3298 25.9243 13.6212 26.5657 12.0611 26.5769C11.1063 26.5838 10.0478 26.6576 9.15356 26.8353C8.70806 26.9239 8.27307 27.044 7.90245 27.2107C7.55182 27.3684 7.14637 27.6171 6.90934 28.0276L3.64992 33.6731C3.46892 33.9866 3.31693 34.3912 3.18876 34.7324L3.1741 34.7714C3.05966 35.0758 2.95438 35.3529 2.84298 35.5933C2.8282 35.5866 2.81266 35.5793 2.79636 35.5715C2.6607 35.5066 2.49801 35.4182 2.29928 35.304C2.29895 35.3038 2.29862 35.3036 2.29829 35.3034L2.28402 35.2952L2.27081 35.2875C2.07204 35.1723 1.91384 35.0754 1.7896 34.9902C1.7747 34.98 1.76064 34.9702 1.74738 34.9608C1.89993 34.7441 2.08726 34.5143 2.29365 34.263L2.3201 34.2309C2.55147 33.9493 2.82585 33.6154 3.00684 33.3019L6.26627 27.6564C6.50329 27.2458 6.516 26.7703 6.47724 26.3878C6.43628 25.9835 6.32282 25.5467 6.17676 25.1166C5.88356 24.2534 5.41823 23.2998 4.94677 22.4695C4.17641 21.1128 4.37763 20.1784 4.74981 19.5338L9.39622 11.486C9.79576 10.7939 10.6178 10.345 11.8294 10.3038C13.0376 10.2628 14.5276 10.6428 16.009 11.4919M16.849 10.0716L16.8582 10.0769L16.8629 10.0797L16.8651 10.0809C17.2637 10.3127 17.6407 10.5619 17.9936 10.8253C18.3588 11.0978 18.4339 11.6148 18.1614 11.9799C17.8889 12.3451 17.372 12.4202 17.0068 12.1477C16.7055 11.9228 16.3815 11.7084 16.0368 11.508" fill="#0A0A3C"/>
<path d="M23.2056 10.7768C26.38 8.95682 29.769 9.0379 30.9442 11.0735L35.5906 19.1213C36.1107 20.0222 36.3098 21.2685 35.3966 22.8769C34.4834 24.4852 33.6407 26.4931 34.0742 27.2439L37.3336 32.8894C37.4801 33.1431 37.7177 33.4324 37.9699 33.7394C38.2549 34.0865 38.5585 34.4562 38.7701 34.8227C38.9928 35.2084 38.5896 35.5255 37.7689 36.0013C37.7639 36.0042 37.7589 36.0071 37.7539 36.0099C37.7489 36.0128 37.7439 36.0157 37.7389 36.0186C36.9166 36.4915 36.4403 36.6821 36.2176 36.2964C36.006 35.9299 35.8377 35.4821 35.6796 35.0617C35.5398 34.6898 35.4081 34.3394 35.2616 34.0856L32.0021 28.4401C31.5687 27.6894 29.4084 27.4152 27.559 27.4019C25.7095 27.3886 24.7297 26.593 24.2096 25.6922L19.5631 17.6443C18.3879 15.6088 20.0122 12.6333 23.1755 10.7941C23.1805 10.7912 23.1855 10.7883 23.1905 10.7854C23.1955 10.7825 23.2006 10.7797 23.2056 10.7768Z" fill="#9FEAFF"/>
<path d="M23.1758 10.7942L23.1908 10.7855L23.2058 10.7768C26.3803 8.95683 29.7692 9.03793 30.9445 11.0735L35.5909 19.1213C36.111 20.0222 36.3101 21.2686 35.3969 22.8769C34.4836 24.4852 33.641 26.4932 34.0744 27.2439L37.3339 32.8894C37.4803 33.1431 37.718 33.4324 37.9701 33.7395C38.2552 34.0865 38.5588 34.4562 38.7704 34.8227C38.993 35.2084 38.5898 35.5255 37.7692 36.0013L37.7542 36.01L37.7392 36.0187L23.1758 10.7942Z" fill="#CFF5FF"/>
<path fill-rule="evenodd" clip-rule="evenodd" d="M22.777 10.0716L22.7791 10.0703L22.7883 10.0651L22.7931 10.0623L22.7952 10.0611C24.488 9.09062 26.2792 8.60137 27.8526 8.65478C29.423 8.70809 30.883 9.31742 31.6587 10.661L36.3051 18.7088C36.9732 19.8659 37.1701 21.4243 36.114 23.2842C35.6723 24.0622 35.2597 24.9168 35.0116 25.6473C34.887 26.014 34.814 26.3205 34.7903 26.5541C34.769 26.7645 34.7955 26.8403 34.7941 26.8408L38.0481 32.4769C38.1531 32.6588 38.3397 32.8899 38.6074 33.2158L38.6275 33.2403C38.8988 33.5706 39.2387 33.9844 39.4846 34.4102C39.6256 34.6545 39.6979 34.9528 39.6302 35.2732C39.5681 35.5675 39.4064 35.7893 39.2622 35.9429C38.9911 36.2316 38.5791 36.4852 38.1827 36.715L38.1814 36.7157L38.1502 36.7338C37.753 36.9622 37.3273 37.1923 36.9417 37.2827C36.7366 37.3307 36.4636 37.3598 36.1777 37.2665C35.8664 37.1649 35.6442 36.9532 35.5032 36.7089C35.2573 36.283 35.0689 35.7818 34.9186 35.3817L34.9074 35.352C34.759 34.9572 34.6521 34.68 34.5471 34.4981L31.2931 28.8621C31.292 28.863 31.2396 28.8022 31.0468 28.7155C30.8326 28.6192 30.5307 28.5292 30.1508 28.4537C29.3941 28.3033 28.4477 28.2333 27.5531 28.2269C25.4143 28.2115 24.1632 27.2618 23.4951 26.1047L18.8487 18.0568C18.073 16.7133 18.2753 15.1442 19.0143 13.7576C19.7547 12.3683 21.0741 11.0616 22.7609 10.0809L22.7631 10.0797L22.7678 10.0769L22.777 10.0716ZM23.5892 11.508C22.1131 12.3664 21.039 13.4667 20.4704 14.5336C19.9003 15.6034 19.8781 16.5398 20.2776 17.2318L24.924 25.2797C25.2962 25.9243 26.0048 26.5657 27.5649 26.5769C28.5197 26.5838 29.5782 26.6576 30.4724 26.8353C30.9179 26.9239 31.3529 27.044 31.7235 27.2107C32.0742 27.3684 32.4796 27.6171 32.7166 28.0276L35.9761 33.6731C36.1571 33.9866 36.3091 34.3912 36.4372 34.7324L36.4519 34.7714C36.5663 35.0758 36.6716 35.3529 36.783 35.5933C36.7978 35.5866 36.8133 35.5793 36.8296 35.5715C36.9653 35.5066 37.128 35.4182 37.3267 35.304C37.327 35.3038 37.3274 35.3036 37.3277 35.3034L37.342 35.2952L37.3552 35.2875C37.5539 35.1723 37.7121 35.0754 37.8364 34.9902C37.8513 34.98 37.8653 34.9702 37.8786 34.9608C37.726 34.7441 37.5387 34.5143 37.3323 34.263L37.3059 34.2309C37.0745 33.9493 36.8001 33.6154 36.6191 33.3019L33.3597 27.6564C33.1227 27.2458 33.11 26.7703 33.1487 26.3878C33.1897 25.9835 33.3032 25.5467 33.4492 25.1166C33.7424 24.2534 34.2077 23.2998 34.6792 22.4695C35.4496 21.1128 35.2483 20.1784 34.8762 19.5338L30.2298 11.486C29.8302 10.7939 29.0082 10.345 27.7966 10.3038C26.5884 10.2628 25.0984 10.6428 23.617 11.4919" fill="#0A0A3C"/>
<path fill-rule="evenodd" clip-rule="evenodd" d="M19.6746 9.5C19.219 9.5 18.8496 9.13063 18.8496 8.675L18.8496 1.325C18.8496 0.869365 19.219 0.5 19.6746 0.5C20.1302 0.5 20.4996 0.869365 20.4996 1.325L20.4996 8.675C20.4996 9.13063 20.1302 9.5 19.6746 9.5Z" fill="#0A0A3C"/>
<path fill-rule="evenodd" clip-rule="evenodd" d="M17.2806 8.44731C16.9584 8.7695 16.4361 8.7695 16.1139 8.44731L12.7806 5.11404C12.4584 4.79186 12.4584 4.2695 12.7806 3.94731C13.1028 3.62513 13.6252 3.62513 13.9474 3.94731L17.2806 7.28059C17.6028 7.60277 17.6028 8.12513 17.2806 8.44731Z" fill="#0A0A3C"/>
<path fill-rule="evenodd" clip-rule="evenodd" d="M22.0827 8.44731C22.4048 8.7695 22.9272 8.7695 23.2494 8.44731L26.5827 5.11404C26.9048 4.79186 26.9048 4.2695 26.5827 3.94731C26.2605 3.62513 25.7381 3.62513 25.4159 3.94731L22.0827 7.28059C21.7605 7.60277 21.7605 8.12513 22.0827 8.44731Z" fill="#0A0A3C"/>
</g>
<defs>
<clipPath id="clip0_588_5243">
<rect width="40" height="40" fill="white"/>
</clipPath>
</defs>
</svg>
